M48
; DRILL file {KiCad (7.0.0)} date Sat Mar  4 14:16:55 2023
; FORMAT={-:-/ absolute / inch / decimal}
; #@! TF.CreationDate,2023-03-04T14:16:55-06:00
; #@! TF.GenerationSoftware,Kicad,Pcbnew,(7.0.0)
; #@! TF.FileFunction,Plated,1,2,PTH
FMAT,2
INCH
; #@! TA.AperFunction,Plated,PTH,ViaDrill
T1C0.0157
; #@! TA.AperFunction,Plated,PTH,ComponentDrill
T2C0.0394
; #@! TA.AperFunction,Plated,PTH,ComponentDrill
T3C0.0598
%
G90
G05
T1
X3.088Y-4.094
X3.09Y-3.78
X3.43Y-4.106
X3.431Y-4.038
X3.432Y-3.896
X3.453Y-3.821
X3.563Y-3.622
X3.738Y-4.4
X3.905Y-3.896
X3.978Y-3.694
X3.989Y-4.285
X4.025Y-4.015
X4.025Y-4.0663
X4.025Y-4.12
X4.036Y-3.294
X4.036Y-3.327
X4.036Y-3.36
X4.074Y-3.294
X4.074Y-3.327
X4.074Y-3.36
X4.105Y-3.39
X4.139Y-3.39
X4.144Y-4.015
X4.144Y-4.0663
X4.144Y-4.12
X4.156Y-3.51
X4.156Y-3.64
X4.173Y-3.39
X4.19Y-3.51
X4.19Y-3.64
X4.207Y-3.39
X4.209Y-4.24
X4.241Y-3.39
X4.2466Y-3.805
X4.272Y-3.294
X4.272Y-3.327
X4.272Y-3.36
X4.2806Y-3.805
X4.31Y-3.294
X4.31Y-3.327
X4.31Y-3.36
T2
X3.148Y-4.2224
X3.248Y-4.2224
X3.348Y-4.2224
X3.442Y-4.366
X3.5114Y-4.5276
X3.6114Y-4.5276
X3.7114Y-4.5276
X3.8114Y-4.5276
X4.0626Y-4.5276
X4.1626Y-4.5276
X4.2626Y-4.5276
X4.3626Y-4.5276
X4.526Y-4.228
X4.626Y-4.228
T3
X3.6598Y-3.4055
X3.8598Y-3.4055
T2
G00X4.476Y-3.9882
M15
G01X4.476Y-3.8858
M16
G05
G00X4.5469Y-3.748
M15
G01X4.6335Y-3.748
M16
G05
G00X4.724Y-3.9803
M15
G01X4.724Y-3.8937
M16
G05
T0
M30
