%TF.GenerationSoftware,KiCad,Pcbnew,(7.0.0)*%
%TF.CreationDate,2023-03-04T14:16:48-06:00*%
%TF.ProjectId,pic16-pump-controller,70696331-362d-4707-956d-702d636f6e74,rev?*%
%TF.SameCoordinates,Original*%
%TF.FileFunction,Copper,L2,Bot*%
%TF.FilePolarity,Positive*%
%FSLAX46Y46*%
G04 Gerber Fmt 4.6, Leading zero omitted, Abs format (unit mm)*
G04 Created by KiCad (PCBNEW (7.0.0)) date 2023-03-04 14:16:48*
%MOMM*%
%LPD*%
G01*
G04 APERTURE LIST*
%TA.AperFunction,ComponentPad*%
%ADD10R,1.700000X1.700000*%
%TD*%
%TA.AperFunction,ComponentPad*%
%ADD11O,1.700000X1.700000*%
%TD*%
%TA.AperFunction,ComponentPad*%
%ADD12R,3.000000X3.000000*%
%TD*%
%TA.AperFunction,ComponentPad*%
%ADD13C,3.000000*%
%TD*%
%TA.AperFunction,ComponentPad*%
%ADD14R,2.000000X4.600000*%
%TD*%
%TA.AperFunction,ComponentPad*%
%ADD15O,2.000000X4.200000*%
%TD*%
%TA.AperFunction,ComponentPad*%
%ADD16O,4.200000X2.000000*%
%TD*%
%TA.AperFunction,ViaPad*%
%ADD17C,0.800000*%
%TD*%
%TA.AperFunction,Conductor*%
%ADD18C,0.254000*%
%TD*%
G04 APERTURE END LIST*
D10*
%TO.P,TP1,1,1*%
%TO.N,RST*%
X87426799Y-110896399D03*
%TD*%
D11*
%TO.P,JP1,2,B*%
%TO.N,+5V*%
X114959999Y-107391199D03*
D10*
%TO.P,JP1,1,A*%
%TO.N,/VIN*%
X117499999Y-107391199D03*
%TD*%
%TO.P,J6,1,Pin_1*%
%TO.N,SOIL_MST*%
X79959999Y-107249999D03*
D11*
%TO.P,J6,2,Pin_2*%
%TO.N,+5V*%
X82499999Y-107249999D03*
%TO.P,J6,3,Pin_3*%
%TO.N,GND*%
X85039999Y-107249999D03*
%TD*%
D10*
%TO.P,J4,1,Pin_1*%
%TO.N,+5V*%
X103189999Y-114999999D03*
D11*
%TO.P,J4,2,Pin_2*%
%TO.N,LVL_SW2*%
X105729999Y-114999999D03*
%TO.P,J4,3,Pin_3*%
%TO.N,GND*%
X108269999Y-114999999D03*
%TO.P,J4,4,Pin_4*%
X110809999Y-114999999D03*
%TD*%
D10*
%TO.P,J3,1,Pin_1*%
%TO.N,+5V*%
X89189999Y-114999999D03*
D11*
%TO.P,J3,2,Pin_2*%
%TO.N,LVL_SW1*%
X91729999Y-114999999D03*
%TO.P,J3,3,Pin_3*%
%TO.N,GND*%
X94269999Y-114999999D03*
%TO.P,J3,4,Pin_4*%
X96809999Y-114999999D03*
%TD*%
D12*
%TO.P,J1,1,Pin_1*%
%TO.N,+12V*%
X98039999Y-86499999D03*
D13*
%TO.P,J1,2,Pin_2*%
%TO.N,/PUMP_N*%
X92960000Y-86500000D03*
%TD*%
D14*
%TO.P,J2,1*%
%TO.N,/VIN*%
X113690399Y-99999999D03*
D15*
%TO.P,J2,2*%
%TO.N,GND*%
X119990399Y-99999999D03*
D16*
%TO.P,J2,3*%
X116590399Y-95199999D03*
%TD*%
D17*
%TO.N,GND*%
X78486000Y-96012000D03*
X78435200Y-103987600D03*
%TO.N,+5V*%
X87122000Y-104292400D03*
%TO.N,GND*%
X101041200Y-93827600D03*
X105257600Y-101981000D03*
X105257600Y-104648000D03*
X105257600Y-103284000D03*
X102235000Y-104648000D03*
X102235000Y-101981000D03*
X102514400Y-84505000D03*
X102514400Y-83667600D03*
X102514400Y-85344000D03*
X109474000Y-84505000D03*
X109474000Y-83667600D03*
X109474000Y-85344000D03*
X108508800Y-83668400D03*
X108508800Y-84505800D03*
X108508800Y-85344800D03*
X106857800Y-86106000D03*
X107721400Y-86106000D03*
X105130600Y-86106000D03*
X105994200Y-86106000D03*
X104267000Y-86106000D03*
X103479600Y-83667600D03*
X103479600Y-85344000D03*
X103479600Y-84505000D03*
X107862400Y-96647000D03*
X108726000Y-96647000D03*
X105562400Y-89154000D03*
X106426000Y-89154000D03*
X106426000Y-92456000D03*
X105562400Y-92456000D03*
X102235000Y-103284000D03*
X87147400Y-102565200D03*
X106908600Y-107696000D03*
X101320600Y-108839000D03*
X94945200Y-111760000D03*
X87706200Y-97053400D03*
X87172800Y-98958400D03*
X90500200Y-91998800D03*
X99187000Y-98958400D03*
%TD*%
D18*
%TO.N,+5V*%
X82500000Y-105764800D02*
X82500000Y-107250000D01*
X83972400Y-104292400D02*
X82500000Y-105764800D01*
X87122000Y-104292400D02*
X83972400Y-104292400D01*
%TD*%
%TA.AperFunction,Conductor*%
%TO.N,GND*%
G36*
X118001618Y-82881552D02*
G01*
X118266128Y-82890212D01*
X118272591Y-82890636D01*
X118326008Y-82895896D01*
X118534344Y-82916416D01*
X118540749Y-82917258D01*
X118800287Y-82960108D01*
X118806633Y-82961371D01*
X119054252Y-83019108D01*
X119076712Y-83027311D01*
X119091124Y-83034654D01*
X119123119Y-83060563D01*
X119127643Y-83066150D01*
X119146332Y-83102833D01*
X119148192Y-83109776D01*
X119150346Y-83150874D01*
X119149222Y-83157974D01*
X119134468Y-83196415D01*
X119124772Y-83211345D01*
X119111746Y-83227429D01*
X116647685Y-85691390D01*
X116647672Y-85691403D01*
X116647191Y-85691885D01*
X116647058Y-85692070D01*
X116646743Y-85692412D01*
X116580967Y-85758190D01*
X116580953Y-85758205D01*
X116578576Y-85760583D01*
X116576537Y-85763270D01*
X116576535Y-85763274D01*
X116425090Y-85962983D01*
X116425084Y-85962992D01*
X116423048Y-85965677D01*
X116421393Y-85968620D01*
X116421390Y-85968625D01*
X116298557Y-86187083D01*
X116298551Y-86187095D01*
X116296896Y-86190039D01*
X116295659Y-86193173D01*
X116295654Y-86193186D01*
X116203709Y-86426342D01*
X116203704Y-86426355D01*
X116202469Y-86429489D01*
X116201669Y-86432771D01*
X116201667Y-86432778D01*
X116142326Y-86676285D01*
X116142324Y-86676296D01*
X116141527Y-86679567D01*
X116141182Y-86682916D01*
X116141181Y-86682926D01*
X116115549Y-86932253D01*
X116115204Y-86935613D01*
X116115319Y-86938984D01*
X116115319Y-86938990D01*
X116117611Y-87006083D01*
X116123992Y-87192859D01*
X116124566Y-87196193D01*
X116124567Y-87196194D01*
X116167151Y-87443182D01*
X116167153Y-87443191D01*
X116167726Y-87446513D01*
X116245593Y-87691849D01*
X116356140Y-87924296D01*
X116357992Y-87927120D01*
X116357994Y-87927123D01*
X116495285Y-88136441D01*
X116497309Y-88139526D01*
X116666471Y-88333529D01*
X116860474Y-88502691D01*
X117075704Y-88643860D01*
X117308151Y-88754407D01*
X117553487Y-88832274D01*
X117807141Y-88876008D01*
X118064387Y-88884796D01*
X118320433Y-88858473D01*
X118570511Y-88797531D01*
X118809961Y-88703104D01*
X119034323Y-88576952D01*
X119239417Y-88421424D01*
X119285166Y-88375673D01*
X119285341Y-88375525D01*
X119285453Y-88375472D01*
X121772567Y-85888253D01*
X121788638Y-85875239D01*
X121803592Y-85865528D01*
X121842013Y-85850781D01*
X121849114Y-85849656D01*
X121890224Y-85851808D01*
X121897171Y-85853670D01*
X121933856Y-85872364D01*
X121939443Y-85876889D01*
X121965342Y-85908872D01*
X121972686Y-85923286D01*
X121980891Y-85945750D01*
X122038626Y-86193362D01*
X122039890Y-86199716D01*
X122082738Y-86459239D01*
X122083583Y-86465663D01*
X122109362Y-86727408D01*
X122109786Y-86733871D01*
X122118447Y-86998411D01*
X122118500Y-87001651D01*
X122118500Y-112998380D01*
X122118447Y-113001620D01*
X122109787Y-113266128D01*
X122109363Y-113272591D01*
X122083584Y-113534336D01*
X122082739Y-113540760D01*
X122039891Y-113800283D01*
X122038627Y-113806636D01*
X121980893Y-114054246D01*
X121972687Y-114076714D01*
X121965342Y-114091128D01*
X121939441Y-114123114D01*
X121933855Y-114127638D01*
X121897166Y-114146332D01*
X121890223Y-114148192D01*
X121849125Y-114150346D01*
X121842025Y-114149222D01*
X121803586Y-114134468D01*
X121788654Y-114124771D01*
X121772568Y-114111745D01*
X121742157Y-114081333D01*
X119308115Y-111647191D01*
X119307922Y-111647053D01*
X119307578Y-111646736D01*
X119241811Y-111580970D01*
X119239417Y-111578576D01*
X119129806Y-111495455D01*
X119037016Y-111425090D01*
X119037014Y-111425088D01*
X119034323Y-111423048D01*
X118912741Y-111354686D01*
X118812916Y-111298557D01*
X118812910Y-111298554D01*
X118809961Y-111296896D01*
X118806820Y-111295657D01*
X118806813Y-111295654D01*
X118573657Y-111203709D01*
X118573648Y-111203706D01*
X118570511Y-111202469D01*
X118567224Y-111201668D01*
X118567221Y-111201667D01*
X118323714Y-111142326D01*
X118323706Y-111142324D01*
X118320433Y-111141527D01*
X118317081Y-111141182D01*
X118317073Y-111141181D01*
X118067746Y-111115549D01*
X118067741Y-111115548D01*
X118064387Y-111115204D01*
X118061014Y-111115319D01*
X118061009Y-111115319D01*
X117810529Y-111123876D01*
X117810525Y-111123876D01*
X117807141Y-111123992D01*
X117803807Y-111124566D01*
X117803805Y-111124567D01*
X117556817Y-111167151D01*
X117556805Y-111167153D01*
X117553487Y-111167726D01*
X117550266Y-111168748D01*
X117550259Y-111168750D01*
X117311373Y-111244570D01*
X117311368Y-111244571D01*
X117308151Y-111245593D01*
X117305102Y-111247042D01*
X117305097Y-111247045D01*
X117078760Y-111354686D01*
X117078752Y-111354690D01*
X117075704Y-111356140D01*
X117072885Y-111357988D01*
X117072876Y-111357994D01*
X116863299Y-111495455D01*
X116863288Y-111495463D01*
X116860474Y-111497309D01*
X116857934Y-111499523D01*
X116857927Y-111499529D01*
X116669024Y-111664244D01*
X116669016Y-111664251D01*
X116666471Y-111666471D01*
X116664251Y-111669016D01*
X116664244Y-111669024D01*
X116499529Y-111857927D01*
X116499523Y-111857934D01*
X116497309Y-111860474D01*
X116495463Y-111863288D01*
X116495455Y-111863299D01*
X116357994Y-112072876D01*
X116357988Y-112072885D01*
X116356140Y-112075704D01*
X116354690Y-112078752D01*
X116354686Y-112078760D01*
X116247045Y-112305097D01*
X116245593Y-112308151D01*
X116244571Y-112311368D01*
X116244570Y-112311373D01*
X116168750Y-112550259D01*
X116168748Y-112550266D01*
X116167726Y-112553487D01*
X116167153Y-112556805D01*
X116167151Y-112556817D01*
X116124567Y-112803805D01*
X116123992Y-112807141D01*
X116123876Y-112810525D01*
X116123876Y-112810529D01*
X116116324Y-113031611D01*
X116115204Y-113064387D01*
X116115548Y-113067741D01*
X116115549Y-113067746D01*
X116141181Y-113317073D01*
X116141182Y-113317081D01*
X116141527Y-113320433D01*
X116142324Y-113323706D01*
X116142326Y-113323714D01*
X116180102Y-113478727D01*
X116202469Y-113570511D01*
X116203706Y-113573648D01*
X116203709Y-113573657D01*
X116295654Y-113806813D01*
X116295657Y-113806820D01*
X116296896Y-113809961D01*
X116298554Y-113812910D01*
X116298557Y-113812916D01*
X116375887Y-113950447D01*
X116423048Y-114034323D01*
X116425088Y-114037014D01*
X116425090Y-114037016D01*
X116447029Y-114065947D01*
X116578576Y-114239417D01*
X116580967Y-114241808D01*
X116624323Y-114285164D01*
X116624473Y-114285341D01*
X116624528Y-114285453D01*
X119097750Y-116758573D01*
X119111739Y-116772561D01*
X119124763Y-116788643D01*
X119134468Y-116803587D01*
X119149221Y-116842024D01*
X119150345Y-116849123D01*
X119148190Y-116890227D01*
X119146330Y-116897169D01*
X119127637Y-116933854D01*
X119123113Y-116939440D01*
X119091125Y-116965342D01*
X119076710Y-116972687D01*
X119054245Y-116980892D01*
X118806637Y-117038626D01*
X118800283Y-117039890D01*
X118540760Y-117082738D01*
X118534336Y-117083583D01*
X118272591Y-117109362D01*
X118266128Y-117109786D01*
X118006842Y-117118274D01*
X118001587Y-117118447D01*
X117998349Y-117118500D01*
X82001620Y-117118500D01*
X81998382Y-117118447D01*
X81988678Y-117118129D01*
X81733871Y-117109787D01*
X81727408Y-117109363D01*
X81465663Y-117083584D01*
X81459239Y-117082739D01*
X81199716Y-117039891D01*
X81193363Y-117038627D01*
X80945750Y-116980892D01*
X80923285Y-116972687D01*
X80913767Y-116967837D01*
X80908871Y-116965343D01*
X80876888Y-116939444D01*
X80872363Y-116933857D01*
X80853668Y-116897169D01*
X80851806Y-116890221D01*
X80849653Y-116849125D01*
X80849653Y-116849123D01*
X80850778Y-116842022D01*
X80865530Y-116803587D01*
X80875228Y-116788653D01*
X80888249Y-116772572D01*
X81791110Y-115869748D01*
X88139500Y-115869748D01*
X88140446Y-115874506D01*
X88140447Y-115874511D01*
X88141534Y-115879976D01*
X88151133Y-115928231D01*
X88156550Y-115936338D01*
X88156551Y-115936340D01*
X88190028Y-115986441D01*
X88195448Y-115994552D01*
X88261769Y-116038867D01*
X88320252Y-116050500D01*
X90054890Y-116050500D01*
X90059748Y-116050500D01*
X90118231Y-116038867D01*
X90184552Y-115994552D01*
X90228867Y-115928231D01*
X90240500Y-115869748D01*
X90240500Y-115000000D01*
X90674417Y-115000000D01*
X90694700Y-115205934D01*
X90754768Y-115403954D01*
X90757062Y-115408246D01*
X90757063Y-115408248D01*
X90850023Y-115582163D01*
X90850025Y-115582166D01*
X90852315Y-115586450D01*
X90983590Y-115746410D01*
X91143550Y-115877685D01*
X91326046Y-115975232D01*
X91524066Y-116035300D01*
X91730000Y-116055583D01*
X91935934Y-116035300D01*
X92133954Y-115975232D01*
X92316450Y-115877685D01*
X92476410Y-115746410D01*
X92607685Y-115586450D01*
X92705232Y-115403954D01*
X92765300Y-115205934D01*
X92771716Y-115140791D01*
X93228785Y-115140791D01*
X93234714Y-115200992D01*
X93236604Y-115210492D01*
X93293819Y-115399105D01*
X93297526Y-115408054D01*
X93390440Y-115581884D01*
X93395815Y-115589929D01*
X93520855Y-115742290D01*
X93527709Y-115749144D01*
X93680070Y-115874184D01*
X93688115Y-115879559D01*
X93861945Y-115972473D01*
X93870894Y-115976180D01*
X94059507Y-116033395D01*
X94069007Y-116035285D01*
X94129208Y-116041214D01*
X94139990Y-116039252D01*
X94143000Y-116028714D01*
X94397000Y-116028714D01*
X94400009Y-116039252D01*
X94410791Y-116041214D01*
X94470992Y-116035285D01*
X94480492Y-116033395D01*
X94669105Y-115976180D01*
X94678054Y-115972473D01*
X94851884Y-115879559D01*
X94859929Y-115874184D01*
X95012290Y-115749144D01*
X95019144Y-115742290D01*
X95144184Y-115589929D01*
X95149559Y-115581884D01*
X95242473Y-115408054D01*
X95246180Y-115399105D01*
X95303395Y-115210492D01*
X95305285Y-115200992D01*
X95311214Y-115140791D01*
X95768785Y-115140791D01*
X95774714Y-115200992D01*
X95776604Y-115210492D01*
X95833819Y-115399105D01*
X95837526Y-115408054D01*
X95930440Y-115581884D01*
X95935815Y-115589929D01*
X96060855Y-115742290D01*
X96067709Y-115749144D01*
X96220070Y-115874184D01*
X96228115Y-115879559D01*
X96401945Y-115972473D01*
X96410894Y-115976180D01*
X96599507Y-116033395D01*
X96609007Y-116035285D01*
X96669208Y-116041214D01*
X96679990Y-116039252D01*
X96683000Y-116028714D01*
X96937000Y-116028714D01*
X96940009Y-116039252D01*
X96950791Y-116041214D01*
X97010992Y-116035285D01*
X97020492Y-116033395D01*
X97209105Y-115976180D01*
X97218054Y-115972473D01*
X97391884Y-115879559D01*
X97399929Y-115874184D01*
X97405334Y-115869748D01*
X102139500Y-115869748D01*
X102140446Y-115874506D01*
X102140447Y-115874511D01*
X102141534Y-115879976D01*
X102151133Y-115928231D01*
X102156550Y-115936338D01*
X102156551Y-115936340D01*
X102190028Y-115986441D01*
X102195448Y-115994552D01*
X102261769Y-116038867D01*
X102320252Y-116050500D01*
X104054890Y-116050500D01*
X104059748Y-116050500D01*
X104118231Y-116038867D01*
X104184552Y-115994552D01*
X104228867Y-115928231D01*
X104240500Y-115869748D01*
X104240500Y-115000000D01*
X104674417Y-115000000D01*
X104694700Y-115205934D01*
X104754768Y-115403954D01*
X104757062Y-115408246D01*
X104757063Y-115408248D01*
X104850023Y-115582163D01*
X104850025Y-115582166D01*
X104852315Y-115586450D01*
X104983590Y-115746410D01*
X105143550Y-115877685D01*
X105326046Y-115975232D01*
X105524066Y-116035300D01*
X105730000Y-116055583D01*
X105935934Y-116035300D01*
X106133954Y-115975232D01*
X106316450Y-115877685D01*
X106476410Y-115746410D01*
X106607685Y-115586450D01*
X106705232Y-115403954D01*
X106765300Y-115205934D01*
X106771716Y-115140791D01*
X107228785Y-115140791D01*
X107234714Y-115200992D01*
X107236604Y-115210492D01*
X107293819Y-115399105D01*
X107297526Y-115408054D01*
X107390440Y-115581884D01*
X107395815Y-115589929D01*
X107520855Y-115742290D01*
X107527709Y-115749144D01*
X107680070Y-115874184D01*
X107688115Y-115879559D01*
X107861945Y-115972473D01*
X107870894Y-115976180D01*
X108059507Y-116033395D01*
X108069007Y-116035285D01*
X108129208Y-116041214D01*
X108139990Y-116039252D01*
X108143000Y-116028714D01*
X108397000Y-116028714D01*
X108400009Y-116039252D01*
X108410791Y-116041214D01*
X108470992Y-116035285D01*
X108480492Y-116033395D01*
X108669105Y-115976180D01*
X108678054Y-115972473D01*
X108851884Y-115879559D01*
X108859929Y-115874184D01*
X109012290Y-115749144D01*
X109019144Y-115742290D01*
X109144184Y-115589929D01*
X109149559Y-115581884D01*
X109242473Y-115408054D01*
X109246180Y-115399105D01*
X109303395Y-115210492D01*
X109305285Y-115200992D01*
X109311214Y-115140791D01*
X109768785Y-115140791D01*
X109774714Y-115200992D01*
X109776604Y-115210492D01*
X109833819Y-115399105D01*
X109837526Y-115408054D01*
X109930440Y-115581884D01*
X109935815Y-115589929D01*
X110060855Y-115742290D01*
X110067709Y-115749144D01*
X110220070Y-115874184D01*
X110228115Y-115879559D01*
X110401945Y-115972473D01*
X110410894Y-115976180D01*
X110599507Y-116033395D01*
X110609007Y-116035285D01*
X110669208Y-116041214D01*
X110679990Y-116039252D01*
X110683000Y-116028714D01*
X110937000Y-116028714D01*
X110940009Y-116039252D01*
X110950791Y-116041214D01*
X111010992Y-116035285D01*
X111020492Y-116033395D01*
X111209105Y-115976180D01*
X111218054Y-115972473D01*
X111391884Y-115879559D01*
X111399929Y-115874184D01*
X111552290Y-115749144D01*
X111559144Y-115742290D01*
X111684184Y-115589929D01*
X111689559Y-115581884D01*
X111782473Y-115408054D01*
X111786180Y-115399105D01*
X111843395Y-115210492D01*
X111845285Y-115200992D01*
X111851214Y-115140791D01*
X111849252Y-115130009D01*
X111838714Y-115127000D01*
X110950033Y-115127000D01*
X110939754Y-115129754D01*
X110937000Y-115140033D01*
X110937000Y-116028714D01*
X110683000Y-116028714D01*
X110683000Y-115140033D01*
X110680245Y-115129754D01*
X110669967Y-115127000D01*
X109781286Y-115127000D01*
X109770747Y-115130009D01*
X109768785Y-115140791D01*
X109311214Y-115140791D01*
X109309252Y-115130009D01*
X109298714Y-115127000D01*
X108410033Y-115127000D01*
X108399754Y-115129754D01*
X108397000Y-115140033D01*
X108397000Y-116028714D01*
X108143000Y-116028714D01*
X108143000Y-115140033D01*
X108140245Y-115129754D01*
X108129967Y-115127000D01*
X107241286Y-115127000D01*
X107230747Y-115130009D01*
X107228785Y-115140791D01*
X106771716Y-115140791D01*
X106785583Y-115000000D01*
X106771716Y-114859208D01*
X107228785Y-114859208D01*
X107230747Y-114869990D01*
X107241286Y-114873000D01*
X108129967Y-114873000D01*
X108140245Y-114870245D01*
X108143000Y-114859967D01*
X108397000Y-114859967D01*
X108399754Y-114870245D01*
X108410033Y-114873000D01*
X109298714Y-114873000D01*
X109309252Y-114869990D01*
X109311214Y-114859208D01*
X109768785Y-114859208D01*
X109770747Y-114869990D01*
X109781286Y-114873000D01*
X110669967Y-114873000D01*
X110680245Y-114870245D01*
X110683000Y-114859967D01*
X110937000Y-114859967D01*
X110939754Y-114870245D01*
X110950033Y-114873000D01*
X111838714Y-114873000D01*
X111849252Y-114869990D01*
X111851214Y-114859208D01*
X111845285Y-114799007D01*
X111843395Y-114789507D01*
X111786180Y-114600894D01*
X111782473Y-114591945D01*
X111689559Y-114418115D01*
X111684184Y-114410070D01*
X111559144Y-114257709D01*
X111552290Y-114250855D01*
X111399929Y-114125815D01*
X111391884Y-114120440D01*
X111218054Y-114027526D01*
X111209105Y-114023819D01*
X111020492Y-113966604D01*
X111010992Y-113964714D01*
X110950791Y-113958785D01*
X110940009Y-113960747D01*
X110937000Y-113971286D01*
X110937000Y-114859967D01*
X110683000Y-114859967D01*
X110683000Y-113971286D01*
X110679990Y-113960747D01*
X110669208Y-113958785D01*
X110609007Y-113964714D01*
X110599507Y-113966604D01*
X110410894Y-114023819D01*
X110401945Y-114027526D01*
X110228115Y-114120440D01*
X110220070Y-114125815D01*
X110067709Y-114250855D01*
X110060855Y-114257709D01*
X109935815Y-114410070D01*
X109930440Y-114418115D01*
X109837526Y-114591945D01*
X109833819Y-114600894D01*
X109776604Y-114789507D01*
X109774714Y-114799007D01*
X109768785Y-114859208D01*
X109311214Y-114859208D01*
X109305285Y-114799007D01*
X109303395Y-114789507D01*
X109246180Y-114600894D01*
X109242473Y-114591945D01*
X109149559Y-114418115D01*
X109144184Y-114410070D01*
X109019144Y-114257709D01*
X109012290Y-114250855D01*
X108859929Y-114125815D01*
X108851884Y-114120440D01*
X108678054Y-114027526D01*
X108669105Y-114023819D01*
X108480492Y-113966604D01*
X108470992Y-113964714D01*
X108410791Y-113958785D01*
X108400009Y-113960747D01*
X108397000Y-113971286D01*
X108397000Y-114859967D01*
X108143000Y-114859967D01*
X108143000Y-113971286D01*
X108139990Y-113960747D01*
X108129208Y-113958785D01*
X108069007Y-113964714D01*
X108059507Y-113966604D01*
X107870894Y-114023819D01*
X107861945Y-114027526D01*
X107688115Y-114120440D01*
X107680070Y-114125815D01*
X107527709Y-114250855D01*
X107520855Y-114257709D01*
X107395815Y-114410070D01*
X107390440Y-114418115D01*
X107297526Y-114591945D01*
X107293819Y-114600894D01*
X107236604Y-114789507D01*
X107234714Y-114799007D01*
X107228785Y-114859208D01*
X106771716Y-114859208D01*
X106765300Y-114794066D01*
X106705232Y-114596046D01*
X106607685Y-114413550D01*
X106476410Y-114253590D01*
X106354617Y-114153638D01*
X106320208Y-114125399D01*
X106320207Y-114125398D01*
X106316450Y-114122315D01*
X106312166Y-114120025D01*
X106312163Y-114120023D01*
X106138248Y-114027063D01*
X106138246Y-114027062D01*
X106133954Y-114024768D01*
X106129293Y-114023354D01*
X105940590Y-113966112D01*
X105940586Y-113966111D01*
X105935934Y-113964700D01*
X105730000Y-113944417D01*
X105725157Y-113944894D01*
X105528908Y-113964223D01*
X105528907Y-113964223D01*
X105524066Y-113964700D01*
X105519415Y-113966110D01*
X105519409Y-113966112D01*
X105330706Y-114023354D01*
X105330702Y-114023355D01*
X105326046Y-114024768D01*
X105321757Y-114027060D01*
X105321751Y-114027063D01*
X105147836Y-114120023D01*
X105147828Y-114120028D01*
X105143550Y-114122315D01*
X105139796Y-114125394D01*
X105139791Y-114125399D01*
X104987354Y-114250500D01*
X104987348Y-114250505D01*
X104983590Y-114253590D01*
X104980505Y-114257348D01*
X104980500Y-114257354D01*
X104855399Y-114409791D01*
X104855394Y-114409796D01*
X104852315Y-114413550D01*
X104850028Y-114417828D01*
X104850023Y-114417836D01*
X104757063Y-114591751D01*
X104757060Y-114591757D01*
X104754768Y-114596046D01*
X104753355Y-114600702D01*
X104753354Y-114600706D01*
X104696112Y-114789409D01*
X104696110Y-114789415D01*
X104694700Y-114794066D01*
X104674417Y-115000000D01*
X104240500Y-115000000D01*
X104240500Y-114130252D01*
X104228867Y-114071769D01*
X104184552Y-114005448D01*
X104126419Y-113966604D01*
X104126340Y-113966551D01*
X104126338Y-113966550D01*
X104118231Y-113961133D01*
X104108667Y-113959230D01*
X104108666Y-113959230D01*
X104064511Y-113950447D01*
X104064506Y-113950446D01*
X104059748Y-113949500D01*
X102320252Y-113949500D01*
X102315494Y-113950446D01*
X102315488Y-113950447D01*
X102271333Y-113959230D01*
X102271330Y-113959231D01*
X102261769Y-113961133D01*
X102253663Y-113966549D01*
X102253659Y-113966551D01*
X102203558Y-114000028D01*
X102203555Y-114000030D01*
X102195448Y-114005448D01*
X102190030Y-114013555D01*
X102190028Y-114013558D01*
X102156551Y-114063659D01*
X102156549Y-114063663D01*
X102151133Y-114071769D01*
X102149231Y-114081330D01*
X102149230Y-114081333D01*
X102140447Y-114125488D01*
X102140446Y-114125494D01*
X102139500Y-114130252D01*
X102139500Y-115869748D01*
X97405334Y-115869748D01*
X97552290Y-115749144D01*
X97559144Y-115742290D01*
X97684184Y-115589929D01*
X97689559Y-115581884D01*
X97782473Y-115408054D01*
X97786180Y-115399105D01*
X97843395Y-115210492D01*
X97845285Y-115200992D01*
X97851214Y-115140791D01*
X97849252Y-115130009D01*
X97838714Y-115127000D01*
X96950033Y-115127000D01*
X96939754Y-115129754D01*
X96937000Y-115140033D01*
X96937000Y-116028714D01*
X96683000Y-116028714D01*
X96683000Y-115140033D01*
X96680245Y-115129754D01*
X96669967Y-115127000D01*
X95781286Y-115127000D01*
X95770747Y-115130009D01*
X95768785Y-115140791D01*
X95311214Y-115140791D01*
X95309252Y-115130009D01*
X95298714Y-115127000D01*
X94410033Y-115127000D01*
X94399754Y-115129754D01*
X94397000Y-115140033D01*
X94397000Y-116028714D01*
X94143000Y-116028714D01*
X94143000Y-115140033D01*
X94140245Y-115129754D01*
X94129967Y-115127000D01*
X93241286Y-115127000D01*
X93230747Y-115130009D01*
X93228785Y-115140791D01*
X92771716Y-115140791D01*
X92785583Y-115000000D01*
X92771716Y-114859208D01*
X93228785Y-114859208D01*
X93230747Y-114869990D01*
X93241286Y-114873000D01*
X94129967Y-114873000D01*
X94140245Y-114870245D01*
X94143000Y-114859967D01*
X94397000Y-114859967D01*
X94399754Y-114870245D01*
X94410033Y-114873000D01*
X95298714Y-114873000D01*
X95309252Y-114869990D01*
X95311214Y-114859208D01*
X95768785Y-114859208D01*
X95770747Y-114869990D01*
X95781286Y-114873000D01*
X96669967Y-114873000D01*
X96680245Y-114870245D01*
X96683000Y-114859967D01*
X96937000Y-114859967D01*
X96939754Y-114870245D01*
X96950033Y-114873000D01*
X97838714Y-114873000D01*
X97849252Y-114869990D01*
X97851214Y-114859208D01*
X97845285Y-114799007D01*
X97843395Y-114789507D01*
X97786180Y-114600894D01*
X97782473Y-114591945D01*
X97689559Y-114418115D01*
X97684184Y-114410070D01*
X97559144Y-114257709D01*
X97552290Y-114250855D01*
X97399929Y-114125815D01*
X97391884Y-114120440D01*
X97218054Y-114027526D01*
X97209105Y-114023819D01*
X97020492Y-113966604D01*
X97010992Y-113964714D01*
X96950791Y-113958785D01*
X96940009Y-113960747D01*
X96937000Y-113971286D01*
X96937000Y-114859967D01*
X96683000Y-114859967D01*
X96683000Y-113971286D01*
X96679990Y-113960747D01*
X96669208Y-113958785D01*
X96609007Y-113964714D01*
X96599507Y-113966604D01*
X96410894Y-114023819D01*
X96401945Y-114027526D01*
X96228115Y-114120440D01*
X96220070Y-114125815D01*
X96067709Y-114250855D01*
X96060855Y-114257709D01*
X95935815Y-114410070D01*
X95930440Y-114418115D01*
X95837526Y-114591945D01*
X95833819Y-114600894D01*
X95776604Y-114789507D01*
X95774714Y-114799007D01*
X95768785Y-114859208D01*
X95311214Y-114859208D01*
X95305285Y-114799007D01*
X95303395Y-114789507D01*
X95246180Y-114600894D01*
X95242473Y-114591945D01*
X95149559Y-114418115D01*
X95144184Y-114410070D01*
X95019144Y-114257709D01*
X95012290Y-114250855D01*
X94859929Y-114125815D01*
X94851884Y-114120440D01*
X94678054Y-114027526D01*
X94669105Y-114023819D01*
X94480492Y-113966604D01*
X94470992Y-113964714D01*
X94410791Y-113958785D01*
X94400009Y-113960747D01*
X94397000Y-113971286D01*
X94397000Y-114859967D01*
X94143000Y-114859967D01*
X94143000Y-113971286D01*
X94139990Y-113960747D01*
X94129208Y-113958785D01*
X94069007Y-113964714D01*
X94059507Y-113966604D01*
X93870894Y-114023819D01*
X93861945Y-114027526D01*
X93688115Y-114120440D01*
X93680070Y-114125815D01*
X93527709Y-114250855D01*
X93520855Y-114257709D01*
X93395815Y-114410070D01*
X93390440Y-114418115D01*
X93297526Y-114591945D01*
X93293819Y-114600894D01*
X93236604Y-114789507D01*
X93234714Y-114799007D01*
X93228785Y-114859208D01*
X92771716Y-114859208D01*
X92765300Y-114794066D01*
X92705232Y-114596046D01*
X92607685Y-114413550D01*
X92476410Y-114253590D01*
X92354617Y-114153638D01*
X92320208Y-114125399D01*
X92320207Y-114125398D01*
X92316450Y-114122315D01*
X92312166Y-114120025D01*
X92312163Y-114120023D01*
X92138248Y-114027063D01*
X92138246Y-114027062D01*
X92133954Y-114024768D01*
X92129293Y-114023354D01*
X91940590Y-113966112D01*
X91940586Y-113966111D01*
X91935934Y-113964700D01*
X91730000Y-113944417D01*
X91725157Y-113944894D01*
X91528908Y-113964223D01*
X91528907Y-113964223D01*
X91524066Y-113964700D01*
X91519415Y-113966110D01*
X91519409Y-113966112D01*
X91330706Y-114023354D01*
X91330702Y-114023355D01*
X91326046Y-114024768D01*
X91321757Y-114027060D01*
X91321751Y-114027063D01*
X91147836Y-114120023D01*
X91147828Y-114120028D01*
X91143550Y-114122315D01*
X91139796Y-114125394D01*
X91139791Y-114125399D01*
X90987354Y-114250500D01*
X90987348Y-114250505D01*
X90983590Y-114253590D01*
X90980505Y-114257348D01*
X90980500Y-114257354D01*
X90855399Y-114409791D01*
X90855394Y-114409796D01*
X90852315Y-114413550D01*
X90850028Y-114417828D01*
X90850023Y-114417836D01*
X90757063Y-114591751D01*
X90757060Y-114591757D01*
X90754768Y-114596046D01*
X90753355Y-114600702D01*
X90753354Y-114600706D01*
X90696112Y-114789409D01*
X90696110Y-114789415D01*
X90694700Y-114794066D01*
X90674417Y-115000000D01*
X90240500Y-115000000D01*
X90240500Y-114130252D01*
X90228867Y-114071769D01*
X90184552Y-114005448D01*
X90126419Y-113966604D01*
X90126340Y-113966551D01*
X90126338Y-113966550D01*
X90118231Y-113961133D01*
X90108667Y-113959230D01*
X90108666Y-113959230D01*
X90064511Y-113950447D01*
X90064506Y-113950446D01*
X90059748Y-113949500D01*
X88320252Y-113949500D01*
X88315494Y-113950446D01*
X88315488Y-113950447D01*
X88271333Y-113959230D01*
X88271330Y-113959231D01*
X88261769Y-113961133D01*
X88253663Y-113966549D01*
X88253659Y-113966551D01*
X88203558Y-114000028D01*
X88203555Y-114000030D01*
X88195448Y-114005448D01*
X88190030Y-114013555D01*
X88190028Y-114013558D01*
X88156551Y-114063659D01*
X88156549Y-114063663D01*
X88151133Y-114071769D01*
X88149231Y-114081330D01*
X88149230Y-114081333D01*
X88140447Y-114125488D01*
X88140446Y-114125494D01*
X88139500Y-114130252D01*
X88139500Y-115869748D01*
X81791110Y-115869748D01*
X83352808Y-114308115D01*
X83352948Y-114307916D01*
X83353233Y-114307606D01*
X83421424Y-114239417D01*
X83576952Y-114034323D01*
X83703104Y-113809961D01*
X83797531Y-113570511D01*
X83858473Y-113320433D01*
X83884796Y-113064387D01*
X83883676Y-113031611D01*
X83879266Y-112902516D01*
X83876008Y-112807141D01*
X83832274Y-112553487D01*
X83754407Y-112308151D01*
X83643860Y-112075704D01*
X83526236Y-111896371D01*
X83504544Y-111863299D01*
X83504543Y-111863298D01*
X83502691Y-111860474D01*
X83420443Y-111766148D01*
X86376300Y-111766148D01*
X86377246Y-111770906D01*
X86377247Y-111770911D01*
X86381959Y-111794600D01*
X86387933Y-111824631D01*
X86393350Y-111832738D01*
X86393351Y-111832740D01*
X86426828Y-111882841D01*
X86432248Y-111890952D01*
X86498569Y-111935267D01*
X86557052Y-111946900D01*
X88291690Y-111946900D01*
X88296548Y-111946900D01*
X88355031Y-111935267D01*
X88421352Y-111890952D01*
X88465667Y-111824631D01*
X88477300Y-111766148D01*
X88477300Y-111092460D01*
X96735593Y-111092460D01*
X96736593Y-111098134D01*
X96736594Y-111098141D01*
X96762415Y-111244570D01*
X96765868Y-111264154D01*
X96768149Y-111269443D01*
X96768151Y-111269448D01*
X96832636Y-111418942D01*
X96832638Y-111418945D01*
X96834921Y-111424238D01*
X96939032Y-111564083D01*
X97072586Y-111676149D01*
X97228385Y-111754394D01*
X97398029Y-111794600D01*
X97525752Y-111794600D01*
X97528636Y-111794600D01*
X97658364Y-111779437D01*
X97822193Y-111719808D01*
X97967854Y-111624005D01*
X98087496Y-111497193D01*
X98174667Y-111346207D01*
X98224669Y-111179188D01*
X98234807Y-111005140D01*
X98204532Y-110833446D01*
X98135479Y-110673362D01*
X98031368Y-110533517D01*
X97897814Y-110421451D01*
X97871505Y-110408238D01*
X97747169Y-110345794D01*
X97747165Y-110345792D01*
X97742015Y-110343206D01*
X97735233Y-110341598D01*
X97577981Y-110304329D01*
X97577976Y-110304328D01*
X97572371Y-110303000D01*
X97441764Y-110303000D01*
X97438910Y-110303333D01*
X97438902Y-110303334D01*
X97317764Y-110317493D01*
X97317759Y-110317493D01*
X97312036Y-110318163D01*
X97306621Y-110320133D01*
X97306616Y-110320135D01*
X97153622Y-110375820D01*
X97153614Y-110375823D01*
X97148207Y-110377792D01*
X97143394Y-110380957D01*
X97143389Y-110380960D01*
X97007365Y-110470425D01*
X97007362Y-110470427D01*
X97002546Y-110473595D01*
X96998593Y-110477784D01*
X96998588Y-110477789D01*
X96886858Y-110596215D01*
X96886854Y-110596219D01*
X96882904Y-110600407D01*
X96880025Y-110605392D01*
X96880023Y-110605396D01*
X96798612Y-110746405D01*
X96798609Y-110746410D01*
X96795733Y-110751393D01*
X96794082Y-110756906D01*
X96794080Y-110756912D01*
X96747384Y-110912888D01*
X96747382Y-110912894D01*
X96745731Y-110918412D01*
X96745395Y-110924163D01*
X96745395Y-110924169D01*
X96735928Y-111086697D01*
X96735928Y-111086702D01*
X96735593Y-111092460D01*
X88477300Y-111092460D01*
X88477300Y-110076460D01*
X91655593Y-110076460D01*
X91656593Y-110082134D01*
X91656594Y-110082141D01*
X91684867Y-110242478D01*
X91685868Y-110248154D01*
X91688149Y-110253443D01*
X91688151Y-110253448D01*
X91752636Y-110402942D01*
X91752638Y-110402945D01*
X91754921Y-110408238D01*
X91758363Y-110412861D01*
X91758364Y-110412863D01*
X91805519Y-110476203D01*
X91859032Y-110548083D01*
X91992586Y-110660149D01*
X92148385Y-110738394D01*
X92318029Y-110778600D01*
X92445752Y-110778600D01*
X92448636Y-110778600D01*
X92578364Y-110763437D01*
X92742193Y-110703808D01*
X92887854Y-110608005D01*
X93007496Y-110481193D01*
X93094667Y-110330207D01*
X93144669Y-110163188D01*
X93154807Y-109989140D01*
X93124532Y-109817446D01*
X93055479Y-109657362D01*
X92951368Y-109517517D01*
X92817814Y-109405451D01*
X92791505Y-109392238D01*
X92667169Y-109329794D01*
X92667165Y-109329792D01*
X92662015Y-109327206D01*
X92655233Y-109325598D01*
X92497981Y-109288329D01*
X92497976Y-109288328D01*
X92492371Y-109287000D01*
X92361764Y-109287000D01*
X92358910Y-109287333D01*
X92358902Y-109287334D01*
X92237764Y-109301493D01*
X92237759Y-109301493D01*
X92232036Y-109302163D01*
X92226621Y-109304133D01*
X92226616Y-109304135D01*
X92073622Y-109359820D01*
X92073614Y-109359823D01*
X92068207Y-109361792D01*
X92063394Y-109364957D01*
X92063389Y-109364960D01*
X91927365Y-109454425D01*
X91927362Y-109454427D01*
X91922546Y-109457595D01*
X91918593Y-109461784D01*
X91918588Y-109461789D01*
X91806858Y-109580215D01*
X91806854Y-109580219D01*
X91802904Y-109584407D01*
X91800025Y-109589392D01*
X91800023Y-109589396D01*
X91718612Y-109730405D01*
X91718609Y-109730410D01*
X91715733Y-109735393D01*
X91714082Y-109740906D01*
X91714080Y-109740912D01*
X91667384Y-109896888D01*
X91667382Y-109896894D01*
X91665731Y-109902412D01*
X91665395Y-109908163D01*
X91665395Y-109908169D01*
X91655928Y-110070697D01*
X91655928Y-110070702D01*
X91655593Y-110076460D01*
X88477300Y-110076460D01*
X88477300Y-110026652D01*
X88465667Y-109968169D01*
X88421352Y-109901848D01*
X88413241Y-109896428D01*
X88363140Y-109862951D01*
X88363138Y-109862950D01*
X88355031Y-109857533D01*
X88345467Y-109855630D01*
X88345466Y-109855630D01*
X88301311Y-109846847D01*
X88301306Y-109846846D01*
X88296548Y-109845900D01*
X86557052Y-109845900D01*
X86552294Y-109846846D01*
X86552288Y-109846847D01*
X86508133Y-109855630D01*
X86508130Y-109855631D01*
X86498569Y-109857533D01*
X86490463Y-109862949D01*
X86490459Y-109862951D01*
X86440358Y-109896428D01*
X86440355Y-109896430D01*
X86432248Y-109901848D01*
X86426830Y-109909955D01*
X86426828Y-109909958D01*
X86393351Y-109960059D01*
X86393349Y-109960063D01*
X86387933Y-109968169D01*
X86386031Y-109977730D01*
X86386030Y-109977733D01*
X86377247Y-110021888D01*
X86377246Y-110021894D01*
X86376300Y-110026652D01*
X86376300Y-111766148D01*
X83420443Y-111766148D01*
X83333529Y-111666471D01*
X83139526Y-111497309D01*
X83136704Y-111495458D01*
X83136700Y-111495455D01*
X82927123Y-111357994D01*
X82927120Y-111357992D01*
X82924296Y-111356140D01*
X82691849Y-111245593D01*
X82555978Y-111202469D01*
X82449740Y-111168750D01*
X82449737Y-111168749D01*
X82446513Y-111167726D01*
X82443191Y-111167153D01*
X82443182Y-111167151D01*
X82196194Y-111124567D01*
X82196193Y-111124566D01*
X82192859Y-111123992D01*
X82189473Y-111123876D01*
X82189470Y-111123876D01*
X81938990Y-111115319D01*
X81938984Y-111115319D01*
X81935613Y-111115204D01*
X81932259Y-111115548D01*
X81932253Y-111115549D01*
X81682926Y-111141181D01*
X81682916Y-111141182D01*
X81679567Y-111141527D01*
X81676296Y-111142324D01*
X81676285Y-111142326D01*
X81432778Y-111201667D01*
X81432771Y-111201669D01*
X81429489Y-111202469D01*
X81426355Y-111203704D01*
X81426342Y-111203709D01*
X81193186Y-111295654D01*
X81193173Y-111295659D01*
X81190039Y-111296896D01*
X81187095Y-111298551D01*
X81187083Y-111298557D01*
X80968625Y-111421390D01*
X80968620Y-111421393D01*
X80965677Y-111423048D01*
X80962992Y-111425084D01*
X80962983Y-111425090D01*
X80763280Y-111576530D01*
X80763272Y-111576536D01*
X80760583Y-111578576D01*
X80758195Y-111580963D01*
X80758188Y-111580970D01*
X80714831Y-111624326D01*
X80714652Y-111624477D01*
X80714547Y-111624529D01*
X80714300Y-111624775D01*
X80714294Y-111624781D01*
X78227435Y-114111740D01*
X78211352Y-114124764D01*
X78196415Y-114134465D01*
X78157975Y-114149221D01*
X78150876Y-114150345D01*
X78109772Y-114148190D01*
X78102830Y-114146330D01*
X78066151Y-114127642D01*
X78063381Y-114125399D01*
X78060563Y-114123116D01*
X78034655Y-114091123D01*
X78027312Y-114076711D01*
X78019108Y-114054248D01*
X78012877Y-114027526D01*
X77961372Y-113806633D01*
X77960109Y-113800283D01*
X77933901Y-113641545D01*
X77917259Y-113540749D01*
X77916416Y-113534336D01*
X77910345Y-113472698D01*
X77890637Y-113272591D01*
X77890213Y-113266127D01*
X77881553Y-113001588D01*
X77881500Y-112998349D01*
X77881500Y-109060460D01*
X96735593Y-109060460D01*
X96736593Y-109066134D01*
X96736594Y-109066141D01*
X96764867Y-109226478D01*
X96765868Y-109232154D01*
X96768149Y-109237443D01*
X96768151Y-109237448D01*
X96832636Y-109386942D01*
X96832638Y-109386945D01*
X96834921Y-109392238D01*
X96838363Y-109396861D01*
X96838364Y-109396863D01*
X96885519Y-109460203D01*
X96939032Y-109532083D01*
X97072586Y-109644149D01*
X97228385Y-109722394D01*
X97398029Y-109762600D01*
X97525752Y-109762600D01*
X97528636Y-109762600D01*
X97658364Y-109747437D01*
X97822193Y-109687808D01*
X97967854Y-109592005D01*
X98087496Y-109465193D01*
X98174667Y-109314207D01*
X98224669Y-109147188D01*
X98234807Y-108973140D01*
X98204532Y-108801446D01*
X98135479Y-108641362D01*
X98031368Y-108501517D01*
X97897814Y-108389451D01*
X97890449Y-108385752D01*
X97747169Y-108313794D01*
X97747165Y-108313792D01*
X97742015Y-108311206D01*
X97735233Y-108309598D01*
X97577981Y-108272329D01*
X97577976Y-108272328D01*
X97572371Y-108271000D01*
X97441764Y-108271000D01*
X97438910Y-108271333D01*
X97438902Y-108271334D01*
X97317764Y-108285493D01*
X97317759Y-108285493D01*
X97312036Y-108286163D01*
X97306621Y-108288133D01*
X97306616Y-108288135D01*
X97153622Y-108343820D01*
X97153614Y-108343823D01*
X97148207Y-108345792D01*
X97143394Y-108348957D01*
X97143389Y-108348960D01*
X97007365Y-108438425D01*
X97007362Y-108438427D01*
X97002546Y-108441595D01*
X96998593Y-108445784D01*
X96998588Y-108445789D01*
X96886858Y-108564215D01*
X96886854Y-108564219D01*
X96882904Y-108568407D01*
X96880025Y-108573392D01*
X96880023Y-108573396D01*
X96798612Y-108714405D01*
X96798609Y-108714410D01*
X96795733Y-108719393D01*
X96794082Y-108724906D01*
X96794080Y-108724912D01*
X96747384Y-108880888D01*
X96747382Y-108880894D01*
X96745731Y-108886412D01*
X96745395Y-108892163D01*
X96745395Y-108892169D01*
X96735928Y-109054697D01*
X96735928Y-109054702D01*
X96735593Y-109060460D01*
X77881500Y-109060460D01*
X77881500Y-108119748D01*
X78909500Y-108119748D01*
X78910446Y-108124506D01*
X78910447Y-108124511D01*
X78911534Y-108129976D01*
X78921133Y-108178231D01*
X78926550Y-108186338D01*
X78926551Y-108186340D01*
X78960028Y-108236441D01*
X78965448Y-108244552D01*
X79031769Y-108288867D01*
X79090252Y-108300500D01*
X80824890Y-108300500D01*
X80829748Y-108300500D01*
X80888231Y-108288867D01*
X80954552Y-108244552D01*
X80998867Y-108178231D01*
X81010500Y-108119748D01*
X81010500Y-107250000D01*
X81444417Y-107250000D01*
X81464700Y-107455934D01*
X81524768Y-107653954D01*
X81527062Y-107658246D01*
X81527063Y-107658248D01*
X81620023Y-107832163D01*
X81620025Y-107832166D01*
X81622315Y-107836450D01*
X81753590Y-107996410D01*
X81913550Y-108127685D01*
X82096046Y-108225232D01*
X82294066Y-108285300D01*
X82500000Y-108305583D01*
X82705934Y-108285300D01*
X82903954Y-108225232D01*
X83086450Y-108127685D01*
X83246410Y-107996410D01*
X83377685Y-107836450D01*
X83475232Y-107653954D01*
X83535300Y-107455934D01*
X83541716Y-107390791D01*
X83998785Y-107390791D01*
X84004714Y-107450992D01*
X84006604Y-107460492D01*
X84063819Y-107649105D01*
X84067526Y-107658054D01*
X84160440Y-107831884D01*
X84165815Y-107839929D01*
X84290855Y-107992290D01*
X84297709Y-107999144D01*
X84450070Y-108124184D01*
X84458115Y-108129559D01*
X84631945Y-108222473D01*
X84640894Y-108226180D01*
X84829507Y-108283395D01*
X84839007Y-108285285D01*
X84899208Y-108291214D01*
X84909990Y-108289252D01*
X84913000Y-108278714D01*
X85167000Y-108278714D01*
X85170009Y-108289252D01*
X85180791Y-108291214D01*
X85240992Y-108285285D01*
X85250492Y-108283395D01*
X85439105Y-108226180D01*
X85448054Y-108222473D01*
X85621884Y-108129559D01*
X85629929Y-108124184D01*
X85782290Y-107999144D01*
X85789144Y-107992290D01*
X85914184Y-107839929D01*
X85919559Y-107831884D01*
X86012473Y-107658054D01*
X86016180Y-107649105D01*
X86073395Y-107460492D01*
X86075285Y-107450992D01*
X86081174Y-107391200D01*
X113904417Y-107391200D01*
X113924700Y-107597134D01*
X113926111Y-107601786D01*
X113926112Y-107601790D01*
X113983354Y-107790493D01*
X113984768Y-107795154D01*
X113987062Y-107799446D01*
X113987063Y-107799448D01*
X114080023Y-107973363D01*
X114080025Y-107973366D01*
X114082315Y-107977650D01*
X114085398Y-107981407D01*
X114085399Y-107981408D01*
X114202571Y-108124184D01*
X114213590Y-108137610D01*
X114373550Y-108268885D01*
X114377835Y-108271175D01*
X114377836Y-108271176D01*
X114404232Y-108285285D01*
X114556046Y-108366432D01*
X114754066Y-108426500D01*
X114960000Y-108446783D01*
X115165934Y-108426500D01*
X115363954Y-108366432D01*
X115546450Y-108268885D01*
X115556121Y-108260948D01*
X116449500Y-108260948D01*
X116450446Y-108265706D01*
X116450447Y-108265711D01*
X116458378Y-108305583D01*
X116461133Y-108319431D01*
X116466550Y-108327538D01*
X116466551Y-108327540D01*
X116500028Y-108377641D01*
X116505448Y-108385752D01*
X116571769Y-108430067D01*
X116630252Y-108441700D01*
X118364890Y-108441700D01*
X118369748Y-108441700D01*
X118428231Y-108430067D01*
X118494552Y-108385752D01*
X118538867Y-108319431D01*
X118550500Y-108260948D01*
X118550500Y-106521452D01*
X118538867Y-106462969D01*
X118494552Y-106396648D01*
X118486441Y-106391228D01*
X118436340Y-106357751D01*
X118436338Y-106357750D01*
X118428231Y-106352333D01*
X118418667Y-106350430D01*
X118418666Y-106350430D01*
X118374511Y-106341647D01*
X118374506Y-106341646D01*
X118369748Y-106340700D01*
X116630252Y-106340700D01*
X116625494Y-106341646D01*
X116625488Y-106341647D01*
X116581333Y-106350430D01*
X116581330Y-106350431D01*
X116571769Y-106352333D01*
X116563663Y-106357749D01*
X116563659Y-106357751D01*
X116513558Y-106391228D01*
X116513555Y-106391230D01*
X116505448Y-106396648D01*
X116500030Y-106404755D01*
X116500028Y-106404758D01*
X116466551Y-106454859D01*
X116466549Y-106454863D01*
X116461133Y-106462969D01*
X116459231Y-106472530D01*
X116459230Y-106472533D01*
X116450447Y-106516688D01*
X116450446Y-106516694D01*
X116449500Y-106521452D01*
X116449500Y-108260948D01*
X115556121Y-108260948D01*
X115706410Y-108137610D01*
X115837685Y-107977650D01*
X115935232Y-107795154D01*
X115995300Y-107597134D01*
X116015583Y-107391200D01*
X115995300Y-107185266D01*
X115935232Y-106987246D01*
X115837685Y-106804750D01*
X115706410Y-106644790D01*
X115546450Y-106513515D01*
X115542166Y-106511225D01*
X115542163Y-106511223D01*
X115368248Y-106418263D01*
X115368246Y-106418262D01*
X115363954Y-106415968D01*
X115359293Y-106414554D01*
X115170590Y-106357312D01*
X115170586Y-106357311D01*
X115165934Y-106355900D01*
X114960000Y-106335617D01*
X114955157Y-106336094D01*
X114758908Y-106355423D01*
X114758907Y-106355423D01*
X114754066Y-106355900D01*
X114749415Y-106357310D01*
X114749409Y-106357312D01*
X114560706Y-106414554D01*
X114560702Y-106414555D01*
X114556046Y-106415968D01*
X114551757Y-106418260D01*
X114551751Y-106418263D01*
X114377836Y-106511223D01*
X114377828Y-106511228D01*
X114373550Y-106513515D01*
X114369796Y-106516594D01*
X114369791Y-106516599D01*
X114217354Y-106641700D01*
X114217348Y-106641705D01*
X114213590Y-106644790D01*
X114210505Y-106648548D01*
X114210500Y-106648554D01*
X114085399Y-106800991D01*
X114085394Y-106800996D01*
X114082315Y-106804750D01*
X114080028Y-106809028D01*
X114080023Y-106809036D01*
X113987063Y-106982951D01*
X113987060Y-106982957D01*
X113984768Y-106987246D01*
X113983355Y-106991902D01*
X113983354Y-106991906D01*
X113926112Y-107180609D01*
X113926110Y-107180615D01*
X113924700Y-107185266D01*
X113904417Y-107391200D01*
X86081174Y-107391200D01*
X86081214Y-107390791D01*
X86079252Y-107380009D01*
X86068714Y-107377000D01*
X85180033Y-107377000D01*
X85169754Y-107379754D01*
X85167000Y-107390033D01*
X85167000Y-108278714D01*
X84913000Y-108278714D01*
X84913000Y-107390033D01*
X84910245Y-107379754D01*
X84899967Y-107377000D01*
X84011286Y-107377000D01*
X84000747Y-107380009D01*
X83998785Y-107390791D01*
X83541716Y-107390791D01*
X83555583Y-107250000D01*
X83541716Y-107109208D01*
X83998785Y-107109208D01*
X84000747Y-107119990D01*
X84011286Y-107123000D01*
X84899967Y-107123000D01*
X84910245Y-107120245D01*
X84913000Y-107109967D01*
X85167000Y-107109967D01*
X85169754Y-107120245D01*
X85180033Y-107123000D01*
X86068714Y-107123000D01*
X86079252Y-107119990D01*
X86081214Y-107109208D01*
X86075285Y-107049007D01*
X86073395Y-107039507D01*
X86016180Y-106850894D01*
X86012473Y-106841945D01*
X85919559Y-106668115D01*
X85914184Y-106660070D01*
X85789144Y-106507709D01*
X85782290Y-106500855D01*
X85629929Y-106375815D01*
X85621884Y-106370440D01*
X85448054Y-106277526D01*
X85439105Y-106273819D01*
X85250492Y-106216604D01*
X85240992Y-106214714D01*
X85180791Y-106208785D01*
X85170009Y-106210747D01*
X85167000Y-106221286D01*
X85167000Y-107109967D01*
X84913000Y-107109967D01*
X84913000Y-106221286D01*
X84909990Y-106210747D01*
X84899208Y-106208785D01*
X84839007Y-106214714D01*
X84829507Y-106216604D01*
X84640894Y-106273819D01*
X84631945Y-106277526D01*
X84458115Y-106370440D01*
X84450070Y-106375815D01*
X84297709Y-106500855D01*
X84290855Y-106507709D01*
X84165815Y-106660070D01*
X84160440Y-106668115D01*
X84067526Y-106841945D01*
X84063819Y-106850894D01*
X84006604Y-107039507D01*
X84004714Y-107049007D01*
X83998785Y-107109208D01*
X83541716Y-107109208D01*
X83535300Y-107044066D01*
X83475232Y-106846046D01*
X83377685Y-106663550D01*
X83246410Y-106503590D01*
X83086450Y-106372315D01*
X83082166Y-106370025D01*
X83082163Y-106370023D01*
X82908248Y-106277063D01*
X82908246Y-106277062D01*
X82903954Y-106274768D01*
X82897765Y-106272890D01*
X82896568Y-106272225D01*
X82894807Y-106271496D01*
X82894890Y-106271293D01*
X82861227Y-106252587D01*
X82836325Y-106219012D01*
X82827500Y-106178153D01*
X82827500Y-105941462D01*
X82835036Y-105903576D01*
X82856496Y-105871458D01*
X84079058Y-104648896D01*
X84111176Y-104627436D01*
X84149062Y-104619900D01*
X86567563Y-104619900D01*
X86611349Y-104630110D01*
X86646105Y-104658632D01*
X86693718Y-104720682D01*
X86819159Y-104816936D01*
X86965238Y-104877444D01*
X87122000Y-104898082D01*
X87278762Y-104877444D01*
X87424841Y-104816936D01*
X87550282Y-104720682D01*
X87646536Y-104595241D01*
X87707044Y-104449162D01*
X87727682Y-104292400D01*
X87707044Y-104135638D01*
X87646536Y-103989559D01*
X87550282Y-103864118D01*
X87424841Y-103767864D01*
X87418847Y-103765381D01*
X87418845Y-103765380D01*
X87284759Y-103709840D01*
X87284758Y-103709839D01*
X87278762Y-103707356D01*
X87272331Y-103706509D01*
X87272326Y-103706508D01*
X87128434Y-103687565D01*
X87122000Y-103686718D01*
X87115566Y-103687565D01*
X86971673Y-103706508D01*
X86971666Y-103706509D01*
X86965238Y-103707356D01*
X86959243Y-103709839D01*
X86959240Y-103709840D01*
X86825154Y-103765380D01*
X86825149Y-103765382D01*
X86819159Y-103767864D01*
X86814015Y-103771811D01*
X86814010Y-103771814D01*
X86698865Y-103860168D01*
X86698862Y-103860170D01*
X86693718Y-103864118D01*
X86689773Y-103869258D01*
X86689769Y-103869263D01*
X86646105Y-103926168D01*
X86611349Y-103954690D01*
X86567563Y-103964900D01*
X83991017Y-103964900D01*
X83982388Y-103964523D01*
X83952042Y-103961867D01*
X83952037Y-103961867D01*
X83943416Y-103961113D01*
X83935052Y-103963353D01*
X83935051Y-103963354D01*
X83905623Y-103971239D01*
X83897194Y-103973108D01*
X83867186Y-103978399D01*
X83867182Y-103978400D01*
X83858661Y-103979903D01*
X83851166Y-103984229D01*
X83845601Y-103986255D01*
X83840218Y-103988765D01*
X83831857Y-103991006D01*
X83824763Y-103995972D01*
X83824763Y-103995973D01*
X83799808Y-104013446D01*
X83792529Y-104018083D01*
X83766139Y-104033320D01*
X83766137Y-104033320D01*
X83758640Y-104037650D01*
X83753076Y-104044279D01*
X83753073Y-104044283D01*
X83733488Y-104067623D01*
X83727655Y-104073989D01*
X82281589Y-105520055D01*
X82275223Y-105525888D01*
X82251883Y-105545473D01*
X82251879Y-105545476D01*
X82245250Y-105551040D01*
X82240920Y-105558537D01*
X82240920Y-105558539D01*
X82225683Y-105584929D01*
X82221046Y-105592208D01*
X82198606Y-105624257D01*
X82196365Y-105632618D01*
X82193855Y-105638001D01*
X82191829Y-105643566D01*
X82187503Y-105651061D01*
X82186000Y-105659582D01*
X82185999Y-105659586D01*
X82180708Y-105689594D01*
X82178839Y-105698023D01*
X82168713Y-105735816D01*
X82169467Y-105744437D01*
X82169467Y-105744442D01*
X82172123Y-105774788D01*
X82172500Y-105783417D01*
X82172500Y-106178153D01*
X82163675Y-106219012D01*
X82138773Y-106252587D01*
X82105109Y-106271293D01*
X82105193Y-106271496D01*
X82103431Y-106272225D01*
X82102234Y-106272891D01*
X82100706Y-106273354D01*
X82100702Y-106273355D01*
X82096046Y-106274768D01*
X82091757Y-106277060D01*
X82091751Y-106277063D01*
X81917836Y-106370023D01*
X81917828Y-106370028D01*
X81913550Y-106372315D01*
X81909796Y-106375394D01*
X81909791Y-106375399D01*
X81757354Y-106500500D01*
X81757348Y-106500505D01*
X81753590Y-106503590D01*
X81750505Y-106507348D01*
X81750500Y-106507354D01*
X81625399Y-106659791D01*
X81625394Y-106659796D01*
X81622315Y-106663550D01*
X81620028Y-106667828D01*
X81620023Y-106667836D01*
X81527063Y-106841751D01*
X81527060Y-106841757D01*
X81524768Y-106846046D01*
X81523355Y-106850702D01*
X81523354Y-106850706D01*
X81466112Y-107039409D01*
X81466110Y-107039415D01*
X81464700Y-107044066D01*
X81464223Y-107048907D01*
X81464223Y-107048908D01*
X81450793Y-107185266D01*
X81444417Y-107250000D01*
X81010500Y-107250000D01*
X81010500Y-106380252D01*
X80998867Y-106321769D01*
X80954552Y-106255448D01*
X80896419Y-106216604D01*
X80896340Y-106216551D01*
X80896338Y-106216550D01*
X80888231Y-106211133D01*
X80878667Y-106209230D01*
X80878666Y-106209230D01*
X80834511Y-106200447D01*
X80834506Y-106200446D01*
X80829748Y-106199500D01*
X79090252Y-106199500D01*
X79085494Y-106200446D01*
X79085488Y-106200447D01*
X79041333Y-106209230D01*
X79041330Y-106209231D01*
X79031769Y-106211133D01*
X79023663Y-106216549D01*
X79023659Y-106216551D01*
X78973558Y-106250028D01*
X78973555Y-106250030D01*
X78965448Y-106255448D01*
X78960030Y-106263555D01*
X78960028Y-106263558D01*
X78926551Y-106313659D01*
X78926549Y-106313663D01*
X78921133Y-106321769D01*
X78919231Y-106331330D01*
X78919230Y-106331333D01*
X78910447Y-106375488D01*
X78910446Y-106375494D01*
X78909500Y-106380252D01*
X78909500Y-108119748D01*
X77881500Y-108119748D01*
X77881500Y-102319748D01*
X112489900Y-102319748D01*
X112501533Y-102378231D01*
X112545848Y-102444552D01*
X112612169Y-102488867D01*
X112670652Y-102500500D01*
X114705290Y-102500500D01*
X114710148Y-102500500D01*
X114768631Y-102488867D01*
X114834952Y-102444552D01*
X114879267Y-102378231D01*
X114890900Y-102319748D01*
X114890900Y-101153184D01*
X118790400Y-101153184D01*
X118790611Y-101157762D01*
X118805357Y-101316889D01*
X118807030Y-101325844D01*
X118865387Y-101530947D01*
X118868678Y-101539442D01*
X118963728Y-101730329D01*
X118968523Y-101738074D01*
X119097037Y-101908252D01*
X119103166Y-101914975D01*
X119260758Y-102058640D01*
X119268032Y-102064133D01*
X119449326Y-102176385D01*
X119457491Y-102180451D01*
X119656328Y-102257482D01*
X119665101Y-102259977D01*
X119849061Y-102294365D01*
X119860175Y-102293163D01*
X119863400Y-102282460D01*
X120117400Y-102282460D01*
X120120624Y-102293163D01*
X120131738Y-102294365D01*
X120315698Y-102259977D01*
X120324471Y-102257482D01*
X120523308Y-102180451D01*
X120531473Y-102176385D01*
X120712767Y-102064133D01*
X120720041Y-102058640D01*
X120877633Y-101914975D01*
X120883762Y-101908252D01*
X121012276Y-101738074D01*
X121017071Y-101730329D01*
X121112121Y-101539442D01*
X121115412Y-101530947D01*
X121173769Y-101325844D01*
X121175442Y-101316889D01*
X121190188Y-101157762D01*
X121190400Y-101153184D01*
X121190400Y-100140033D01*
X121187645Y-100129754D01*
X121177367Y-100127000D01*
X120130433Y-100127000D01*
X120120154Y-100129754D01*
X120117400Y-100140033D01*
X120117400Y-102282460D01*
X119863400Y-102282460D01*
X119863400Y-100140033D01*
X119860645Y-100129754D01*
X119850367Y-100127000D01*
X118803433Y-100127000D01*
X118793154Y-100129754D01*
X118790400Y-100140033D01*
X118790400Y-101153184D01*
X114890900Y-101153184D01*
X114890900Y-99859967D01*
X118790400Y-99859967D01*
X118793154Y-99870245D01*
X118803433Y-99873000D01*
X119850367Y-99873000D01*
X119860645Y-99870245D01*
X119863400Y-99859967D01*
X120117400Y-99859967D01*
X120120154Y-99870245D01*
X120130433Y-99873000D01*
X121177367Y-99873000D01*
X121187645Y-99870245D01*
X121190400Y-99859967D01*
X121190400Y-98846816D01*
X121190188Y-98842237D01*
X121175442Y-98683110D01*
X121173769Y-98674155D01*
X121115412Y-98469052D01*
X121112121Y-98460557D01*
X121017071Y-98269670D01*
X121012276Y-98261925D01*
X120883762Y-98091747D01*
X120877633Y-98085024D01*
X120720041Y-97941359D01*
X120712767Y-97935866D01*
X120531473Y-97823614D01*
X120523308Y-97819548D01*
X120324471Y-97742517D01*
X120315698Y-97740022D01*
X120131738Y-97705634D01*
X120120624Y-97706836D01*
X120117400Y-97717540D01*
X120117400Y-99859967D01*
X119863400Y-99859967D01*
X119863400Y-97717540D01*
X119860175Y-97706836D01*
X119849061Y-97705634D01*
X119665101Y-97740022D01*
X119656328Y-97742517D01*
X119457491Y-97819548D01*
X119449326Y-97823614D01*
X119268032Y-97935866D01*
X119260758Y-97941359D01*
X119103166Y-98085024D01*
X119097037Y-98091747D01*
X118968523Y-98261925D01*
X118963728Y-98269670D01*
X118868678Y-98460557D01*
X118865387Y-98469052D01*
X118807030Y-98674155D01*
X118805357Y-98683110D01*
X118790611Y-98842237D01*
X118790400Y-98846816D01*
X118790400Y-99859967D01*
X114890900Y-99859967D01*
X114890900Y-97680252D01*
X114879267Y-97621769D01*
X114834952Y-97555448D01*
X114826841Y-97550028D01*
X114776740Y-97516551D01*
X114776738Y-97516550D01*
X114768631Y-97511133D01*
X114759067Y-97509230D01*
X114759066Y-97509230D01*
X114714911Y-97500447D01*
X114714906Y-97500446D01*
X114710148Y-97499500D01*
X112670652Y-97499500D01*
X112665894Y-97500446D01*
X112665888Y-97500447D01*
X112621733Y-97509230D01*
X112621730Y-97509231D01*
X112612169Y-97511133D01*
X112604063Y-97516549D01*
X112604059Y-97516551D01*
X112553958Y-97550028D01*
X112553955Y-97550030D01*
X112545848Y-97555448D01*
X112540430Y-97563555D01*
X112540428Y-97563558D01*
X112506951Y-97613659D01*
X112506949Y-97613663D01*
X112501533Y-97621769D01*
X112499631Y-97631330D01*
X112499630Y-97631333D01*
X112490847Y-97675488D01*
X112490846Y-97675494D01*
X112489900Y-97680252D01*
X112489900Y-102319748D01*
X77881500Y-102319748D01*
X77881500Y-95341338D01*
X114296034Y-95341338D01*
X114330422Y-95525298D01*
X114332917Y-95534071D01*
X114409948Y-95732908D01*
X114414014Y-95741073D01*
X114526266Y-95922367D01*
X114531759Y-95929641D01*
X114675424Y-96087233D01*
X114682147Y-96093362D01*
X114852325Y-96221876D01*
X114860070Y-96226671D01*
X115050957Y-96321721D01*
X115059452Y-96325012D01*
X115264555Y-96383369D01*
X115273510Y-96385042D01*
X115432637Y-96399788D01*
X115437216Y-96400000D01*
X116450367Y-96400000D01*
X116460645Y-96397245D01*
X116463400Y-96386967D01*
X116717400Y-96386967D01*
X116720154Y-96397245D01*
X116730433Y-96400000D01*
X117743584Y-96400000D01*
X117748162Y-96399788D01*
X117907289Y-96385042D01*
X117916244Y-96383369D01*
X118121347Y-96325012D01*
X118129842Y-96321721D01*
X118320729Y-96226671D01*
X118328474Y-96221876D01*
X118498652Y-96093362D01*
X118505375Y-96087233D01*
X118649040Y-95929641D01*
X118654533Y-95922367D01*
X118766785Y-95741073D01*
X118770851Y-95732908D01*
X118847882Y-95534071D01*
X118850377Y-95525298D01*
X118884765Y-95341338D01*
X118883563Y-95330224D01*
X118872860Y-95327000D01*
X116730433Y-95327000D01*
X116720154Y-95329754D01*
X116717400Y-95340033D01*
X116717400Y-96386967D01*
X116463400Y-96386967D01*
X116463400Y-95340033D01*
X116460645Y-95329754D01*
X116450367Y-95327000D01*
X114307940Y-95327000D01*
X114297236Y-95330224D01*
X114296034Y-95341338D01*
X77881500Y-95341338D01*
X77881500Y-95058661D01*
X114296034Y-95058661D01*
X114297236Y-95069775D01*
X114307940Y-95073000D01*
X116450367Y-95073000D01*
X116460645Y-95070245D01*
X116463400Y-95059967D01*
X116717400Y-95059967D01*
X116720154Y-95070245D01*
X116730433Y-95073000D01*
X118872860Y-95073000D01*
X118883563Y-95069775D01*
X118884765Y-95058661D01*
X118850377Y-94874701D01*
X118847882Y-94865928D01*
X118770851Y-94667091D01*
X118766785Y-94658926D01*
X118654533Y-94477632D01*
X118649040Y-94470358D01*
X118505375Y-94312766D01*
X118498652Y-94306637D01*
X118328474Y-94178123D01*
X118320729Y-94173328D01*
X118129842Y-94078278D01*
X118121347Y-94074987D01*
X117916244Y-94016630D01*
X117907289Y-94014957D01*
X117748162Y-94000211D01*
X117743584Y-94000000D01*
X116730433Y-94000000D01*
X116720154Y-94002754D01*
X116717400Y-94013033D01*
X116717400Y-95059967D01*
X116463400Y-95059967D01*
X116463400Y-94013033D01*
X116460645Y-94002754D01*
X116450367Y-94000000D01*
X115437216Y-94000000D01*
X115432637Y-94000211D01*
X115273510Y-94014957D01*
X115264555Y-94016630D01*
X115059452Y-94074987D01*
X115050957Y-94078278D01*
X114860070Y-94173328D01*
X114852325Y-94178123D01*
X114682147Y-94306637D01*
X114675424Y-94312766D01*
X114531759Y-94470358D01*
X114526266Y-94477632D01*
X114414014Y-94658926D01*
X114409948Y-94667091D01*
X114332917Y-94865928D01*
X114330422Y-94874701D01*
X114296034Y-95058661D01*
X77881500Y-95058661D01*
X77881500Y-87001620D01*
X77881553Y-86998381D01*
X77890212Y-86733872D01*
X77890636Y-86727408D01*
X77895671Y-86676285D01*
X77916416Y-86465651D01*
X77917257Y-86459254D01*
X77960109Y-86199706D01*
X77961372Y-86193362D01*
X77966787Y-86170142D01*
X78019108Y-85945744D01*
X78027312Y-85923284D01*
X78027313Y-85923282D01*
X78034656Y-85908872D01*
X78060558Y-85876884D01*
X78066152Y-85872355D01*
X78102828Y-85853669D01*
X78109778Y-85851806D01*
X78150869Y-85849652D01*
X78157978Y-85850778D01*
X78196415Y-85865532D01*
X78206925Y-85872357D01*
X78211350Y-85875231D01*
X78227430Y-85888254D01*
X80538635Y-88199552D01*
X80691885Y-88352808D01*
X80692076Y-88352944D01*
X80692407Y-88353248D01*
X80760583Y-88421424D01*
X80965677Y-88576952D01*
X81190039Y-88703104D01*
X81429489Y-88797531D01*
X81679567Y-88858473D01*
X81935613Y-88884796D01*
X82192859Y-88876008D01*
X82446513Y-88832274D01*
X82691849Y-88754407D01*
X82924296Y-88643860D01*
X83139526Y-88502691D01*
X83333529Y-88333529D01*
X83502691Y-88139526D01*
X83643860Y-87924296D01*
X83754407Y-87691849D01*
X83832274Y-87446513D01*
X83876008Y-87192859D01*
X83884796Y-86935613D01*
X83858473Y-86679567D01*
X83814714Y-86500000D01*
X91254732Y-86500000D01*
X91255009Y-86503696D01*
X91273500Y-86750458D01*
X91273501Y-86750468D01*
X91273778Y-86754157D01*
X91274600Y-86757761D01*
X91274602Y-86757770D01*
X91307640Y-86902516D01*
X91330492Y-87002637D01*
X91423607Y-87239888D01*
X91551041Y-87460612D01*
X91709950Y-87659877D01*
X91896783Y-87833232D01*
X92107366Y-87976805D01*
X92110704Y-87978412D01*
X92110705Y-87978413D01*
X92206428Y-88024511D01*
X92336996Y-88087389D01*
X92340526Y-88088478D01*
X92340529Y-88088479D01*
X92418123Y-88112413D01*
X92580542Y-88162513D01*
X92584208Y-88163065D01*
X92584210Y-88163066D01*
X92628562Y-88169750D01*
X92832565Y-88200500D01*
X93083730Y-88200500D01*
X93087435Y-88200500D01*
X93339458Y-88162513D01*
X93583004Y-88087389D01*
X93723462Y-88019748D01*
X96339500Y-88019748D01*
X96351133Y-88078231D01*
X96356550Y-88086338D01*
X96356551Y-88086340D01*
X96375196Y-88114243D01*
X96395448Y-88144552D01*
X96461769Y-88188867D01*
X96520252Y-88200500D01*
X99554890Y-88200500D01*
X99559748Y-88200500D01*
X99618231Y-88188867D01*
X99684552Y-88144552D01*
X99728867Y-88078231D01*
X99740500Y-88019748D01*
X99740500Y-84980252D01*
X99728867Y-84921769D01*
X99684552Y-84855448D01*
X99676441Y-84850028D01*
X99626340Y-84816551D01*
X99626338Y-84816550D01*
X99618231Y-84811133D01*
X99608667Y-84809230D01*
X99608666Y-84809230D01*
X99564511Y-84800447D01*
X99564506Y-84800446D01*
X99559748Y-84799500D01*
X96520252Y-84799500D01*
X96515494Y-84800446D01*
X96515488Y-84800447D01*
X96471333Y-84809230D01*
X96471330Y-84809231D01*
X96461769Y-84811133D01*
X96453663Y-84816549D01*
X96453659Y-84816551D01*
X96403558Y-84850028D01*
X96403555Y-84850030D01*
X96395448Y-84855448D01*
X96390030Y-84863555D01*
X96390028Y-84863558D01*
X96356551Y-84913659D01*
X96356549Y-84913663D01*
X96351133Y-84921769D01*
X96349231Y-84931330D01*
X96349230Y-84931333D01*
X96340447Y-84975488D01*
X96340446Y-84975494D01*
X96339500Y-84980252D01*
X96339500Y-88019748D01*
X93723462Y-88019748D01*
X93812634Y-87976805D01*
X94023217Y-87833232D01*
X94210050Y-87659877D01*
X94368959Y-87460612D01*
X94496393Y-87239888D01*
X94589508Y-87002637D01*
X94646222Y-86754157D01*
X94665268Y-86500000D01*
X94646222Y-86245843D01*
X94589508Y-85997363D01*
X94496393Y-85760112D01*
X94368959Y-85539388D01*
X94210050Y-85340123D01*
X94023217Y-85166768D01*
X94020158Y-85164682D01*
X94020155Y-85164680D01*
X93815692Y-85025280D01*
X93812634Y-85023195D01*
X93809299Y-85021589D01*
X93809294Y-85021586D01*
X93586338Y-84914216D01*
X93586331Y-84914213D01*
X93583004Y-84912611D01*
X93579480Y-84911524D01*
X93579470Y-84911520D01*
X93342999Y-84838579D01*
X93342995Y-84838578D01*
X93339458Y-84837487D01*
X93335801Y-84836935D01*
X93335789Y-84836933D01*
X93091099Y-84800052D01*
X93091095Y-84800051D01*
X93087435Y-84799500D01*
X92832565Y-84799500D01*
X92828905Y-84800051D01*
X92828900Y-84800052D01*
X92584210Y-84836933D01*
X92584195Y-84836936D01*
X92580542Y-84837487D01*
X92577007Y-84838577D01*
X92577000Y-84838579D01*
X92340529Y-84911520D01*
X92340514Y-84911525D01*
X92336996Y-84912611D01*
X92333672Y-84914211D01*
X92333661Y-84914216D01*
X92110705Y-85021586D01*
X92110694Y-85021592D01*
X92107366Y-85023195D01*
X92104312Y-85025276D01*
X92104307Y-85025280D01*
X91899844Y-85164680D01*
X91899834Y-85164687D01*
X91896783Y-85166768D01*
X91894068Y-85169286D01*
X91894063Y-85169291D01*
X91712664Y-85337604D01*
X91712658Y-85337609D01*
X91709950Y-85340123D01*
X91707648Y-85343009D01*
X91707642Y-85343016D01*
X91553349Y-85536493D01*
X91553344Y-85536498D01*
X91551041Y-85539388D01*
X91549195Y-85542583D01*
X91549191Y-85542591D01*
X91425457Y-85756907D01*
X91423607Y-85760112D01*
X91422254Y-85763557D01*
X91422253Y-85763561D01*
X91331844Y-85993916D01*
X91331840Y-85993926D01*
X91330492Y-85997363D01*
X91329669Y-86000965D01*
X91329669Y-86000968D01*
X91274602Y-86242229D01*
X91274600Y-86242240D01*
X91273778Y-86245843D01*
X91273501Y-86249529D01*
X91273500Y-86249541D01*
X91257305Y-86465663D01*
X91254732Y-86500000D01*
X83814714Y-86500000D01*
X83797531Y-86429489D01*
X83703104Y-86190039D01*
X83576952Y-85965677D01*
X83421424Y-85760583D01*
X83375671Y-85714830D01*
X83375523Y-85714655D01*
X83375471Y-85714547D01*
X80888255Y-83227433D01*
X80875233Y-83211353D01*
X80865529Y-83196409D01*
X80850781Y-83157986D01*
X80849656Y-83150885D01*
X80851808Y-83109775D01*
X80853671Y-83102825D01*
X80872356Y-83066153D01*
X80876885Y-83060559D01*
X80908874Y-83034655D01*
X80923290Y-83027311D01*
X80945745Y-83019109D01*
X81193372Y-82961370D01*
X81199706Y-82960110D01*
X81459254Y-82917258D01*
X81465651Y-82916417D01*
X81727408Y-82890636D01*
X81733869Y-82890213D01*
X81998411Y-82881553D01*
X82001651Y-82881500D01*
X82054851Y-82881500D01*
X117945149Y-82881500D01*
X117998380Y-82881500D01*
X118001618Y-82881552D01*
G37*
%TD.AperFunction*%
%TD*%
M02*
