%TF.GenerationSoftware,KiCad,Pcbnew,(7.0.0)*%
%TF.CreationDate,2023-03-04T14:16:48-06:00*%
%TF.ProjectId,pic16-pump-controller,70696331-362d-4707-956d-702d636f6e74,rev?*%
%TF.SameCoordinates,Original*%
%TF.FileFunction,Profile,NP*%
%FSLAX46Y46*%
G04 Gerber Fmt 4.6, Leading zero omitted, Abs format (unit mm)*
G04 Created by KiCad (PCBNEW (7.0.0)) date 2023-03-04 14:16:48*
%MOMM*%
%LPD*%
G01*
G04 APERTURE LIST*
%TA.AperFunction,Profile*%
%ADD10C,0.120000*%
%TD*%
G04 APERTURE END LIST*
D10*
X122499999Y-87000000D02*
G75*
G03*
X122346665Y-85835314I-4499999J0D01*
G01*
X122346662Y-85835290D02*
G75*
G03*
X121510147Y-85611147I-482962J-129410D01*
G01*
X122500000Y-87000000D02*
X122500000Y-113000000D01*
X121510100Y-85611200D02*
X119060700Y-88060700D01*
X122346666Y-114164686D02*
G75*
G03*
X122500000Y-113000000I-4346666J1164686D01*
G01*
X116939341Y-85939341D02*
G75*
G03*
X119060659Y-88060659I1060659J-1060659D01*
G01*
X121510147Y-114388853D02*
G75*
G03*
X122346663Y-114164710I353553J353553D01*
G01*
X119388800Y-83489900D02*
X116939300Y-85939300D01*
X121510100Y-114388800D02*
X119060700Y-111939300D01*
X119388853Y-83489853D02*
G75*
G03*
X119164710Y-82653337I-353553J353553D01*
G01*
X119060659Y-111939341D02*
G75*
G03*
X116939341Y-114060659I-1060659J-1060659D01*
G01*
X119164686Y-82653334D02*
G75*
G03*
X118000000Y-82500000I-1164686J-4346666D01*
G01*
X119388800Y-116510100D02*
X116939300Y-114060700D01*
X82000000Y-82500000D02*
X118000000Y-82500000D01*
X119164710Y-117346662D02*
G75*
G03*
X119388853Y-116510147I-129410J482962D01*
G01*
X82000000Y-82500001D02*
G75*
G03*
X80835314Y-82653335I0J-4499999D01*
G01*
X118000000Y-117499999D02*
G75*
G03*
X119164686Y-117346665I0J4499999D01*
G01*
X80835290Y-82653338D02*
G75*
G03*
X80611147Y-83489853I129410J-482962D01*
G01*
X118000000Y-117500000D02*
X82000000Y-117500000D01*
X80611200Y-83489900D02*
X83060700Y-85939300D01*
X80835314Y-117346666D02*
G75*
G03*
X82000000Y-117500000I1164686J4346666D01*
G01*
X80939341Y-88060659D02*
G75*
G03*
X83060659Y-85939341I1060659J1060659D01*
G01*
X80611147Y-116510147D02*
G75*
G03*
X80835290Y-117346663I353553J-353553D01*
G01*
X78489900Y-85611200D02*
X80939300Y-88060700D01*
X80611200Y-116510100D02*
X83060700Y-114060700D01*
X78489853Y-85611147D02*
G75*
G03*
X77653337Y-85835290I-353553J-353553D01*
G01*
X83060659Y-114060659D02*
G75*
G03*
X80939341Y-111939341I-1060659J1060659D01*
G01*
X77653334Y-85835314D02*
G75*
G03*
X77500000Y-87000000I4346666J-1164686D01*
G01*
X78489900Y-114388800D02*
X80939300Y-111939300D01*
X77500000Y-113000000D02*
X77500000Y-87000000D01*
X77653338Y-114164710D02*
G75*
G03*
X78489853Y-114388853I482962J129410D01*
G01*
X77500001Y-113000000D02*
G75*
G03*
X77653335Y-114164686I4499999J0D01*
G01*
M02*
