%TF.GenerationSoftware,KiCad,Pcbnew,(7.0.0)*%
%TF.CreationDate,2023-03-04T14:16:48-06:00*%
%TF.ProjectId,pic16-pump-controller,70696331-362d-4707-956d-702d636f6e74,rev?*%
%TF.SameCoordinates,Original*%
%TF.FileFunction,Legend,Bot*%
%TF.FilePolarity,Positive*%
%FSLAX46Y46*%
G04 Gerber Fmt 4.6, Leading zero omitted, Abs format (unit mm)*
G04 Created by KiCad (PCBNEW (7.0.0)) date 2023-03-04 14:16:48*
%MOMM*%
%LPD*%
G01*
G04 APERTURE LIST*
%ADD10C,0.150000*%
G04 APERTURE END LIST*
D10*
X107023809Y-99700714D02*
X107023809Y-100510238D01*
X107023809Y-100510238D02*
X107071428Y-100605476D01*
X107071428Y-100605476D02*
X107119047Y-100653095D01*
X107119047Y-100653095D02*
X107214285Y-100700714D01*
X107214285Y-100700714D02*
X107357142Y-100700714D01*
X107357142Y-100700714D02*
X107452380Y-100653095D01*
X107023809Y-100319761D02*
X107119047Y-100367380D01*
X107119047Y-100367380D02*
X107309523Y-100367380D01*
X107309523Y-100367380D02*
X107404761Y-100319761D01*
X107404761Y-100319761D02*
X107452380Y-100272142D01*
X107452380Y-100272142D02*
X107499999Y-100176904D01*
X107499999Y-100176904D02*
X107499999Y-99891190D01*
X107499999Y-99891190D02*
X107452380Y-99795952D01*
X107452380Y-99795952D02*
X107404761Y-99748333D01*
X107404761Y-99748333D02*
X107309523Y-99700714D01*
X107309523Y-99700714D02*
X107119047Y-99700714D01*
X107119047Y-99700714D02*
X107023809Y-99748333D01*
X106547618Y-100367380D02*
X106547618Y-99700714D01*
X106547618Y-99367380D02*
X106595237Y-99415000D01*
X106595237Y-99415000D02*
X106547618Y-99462619D01*
X106547618Y-99462619D02*
X106499999Y-99415000D01*
X106499999Y-99415000D02*
X106547618Y-99367380D01*
X106547618Y-99367380D02*
X106547618Y-99462619D01*
X106214285Y-99700714D02*
X105833333Y-99700714D01*
X106071428Y-99367380D02*
X106071428Y-100224523D01*
X106071428Y-100224523D02*
X106023809Y-100319761D01*
X106023809Y-100319761D02*
X105928571Y-100367380D01*
X105928571Y-100367380D02*
X105833333Y-100367380D01*
X105499999Y-100367380D02*
X105499999Y-99367380D01*
X105071428Y-100367380D02*
X105071428Y-99843571D01*
X105071428Y-99843571D02*
X105119047Y-99748333D01*
X105119047Y-99748333D02*
X105214285Y-99700714D01*
X105214285Y-99700714D02*
X105357142Y-99700714D01*
X105357142Y-99700714D02*
X105452380Y-99748333D01*
X105452380Y-99748333D02*
X105499999Y-99795952D01*
X104166666Y-99700714D02*
X104166666Y-100367380D01*
X104595237Y-99700714D02*
X104595237Y-100224523D01*
X104595237Y-100224523D02*
X104547618Y-100319761D01*
X104547618Y-100319761D02*
X104452380Y-100367380D01*
X104452380Y-100367380D02*
X104309523Y-100367380D01*
X104309523Y-100367380D02*
X104214285Y-100319761D01*
X104214285Y-100319761D02*
X104166666Y-100272142D01*
X103690475Y-100367380D02*
X103690475Y-99367380D01*
X103690475Y-99748333D02*
X103595237Y-99700714D01*
X103595237Y-99700714D02*
X103404761Y-99700714D01*
X103404761Y-99700714D02*
X103309523Y-99748333D01*
X103309523Y-99748333D02*
X103261904Y-99795952D01*
X103261904Y-99795952D02*
X103214285Y-99891190D01*
X103214285Y-99891190D02*
X103214285Y-100176904D01*
X103214285Y-100176904D02*
X103261904Y-100272142D01*
X103261904Y-100272142D02*
X103309523Y-100319761D01*
X103309523Y-100319761D02*
X103404761Y-100367380D01*
X103404761Y-100367380D02*
X103595237Y-100367380D01*
X103595237Y-100367380D02*
X103690475Y-100319761D01*
X102785713Y-100272142D02*
X102738094Y-100319761D01*
X102738094Y-100319761D02*
X102785713Y-100367380D01*
X102785713Y-100367380D02*
X102833332Y-100319761D01*
X102833332Y-100319761D02*
X102785713Y-100272142D01*
X102785713Y-100272142D02*
X102785713Y-100367380D01*
X101880952Y-100319761D02*
X101976190Y-100367380D01*
X101976190Y-100367380D02*
X102166666Y-100367380D01*
X102166666Y-100367380D02*
X102261904Y-100319761D01*
X102261904Y-100319761D02*
X102309523Y-100272142D01*
X102309523Y-100272142D02*
X102357142Y-100176904D01*
X102357142Y-100176904D02*
X102357142Y-99891190D01*
X102357142Y-99891190D02*
X102309523Y-99795952D01*
X102309523Y-99795952D02*
X102261904Y-99748333D01*
X102261904Y-99748333D02*
X102166666Y-99700714D01*
X102166666Y-99700714D02*
X101976190Y-99700714D01*
X101976190Y-99700714D02*
X101880952Y-99748333D01*
X101309523Y-100367380D02*
X101404761Y-100319761D01*
X101404761Y-100319761D02*
X101452380Y-100272142D01*
X101452380Y-100272142D02*
X101499999Y-100176904D01*
X101499999Y-100176904D02*
X101499999Y-99891190D01*
X101499999Y-99891190D02*
X101452380Y-99795952D01*
X101452380Y-99795952D02*
X101404761Y-99748333D01*
X101404761Y-99748333D02*
X101309523Y-99700714D01*
X101309523Y-99700714D02*
X101166666Y-99700714D01*
X101166666Y-99700714D02*
X101071428Y-99748333D01*
X101071428Y-99748333D02*
X101023809Y-99795952D01*
X101023809Y-99795952D02*
X100976190Y-99891190D01*
X100976190Y-99891190D02*
X100976190Y-100176904D01*
X100976190Y-100176904D02*
X101023809Y-100272142D01*
X101023809Y-100272142D02*
X101071428Y-100319761D01*
X101071428Y-100319761D02*
X101166666Y-100367380D01*
X101166666Y-100367380D02*
X101309523Y-100367380D01*
X100547618Y-100367380D02*
X100547618Y-99700714D01*
X100547618Y-99795952D02*
X100499999Y-99748333D01*
X100499999Y-99748333D02*
X100404761Y-99700714D01*
X100404761Y-99700714D02*
X100261904Y-99700714D01*
X100261904Y-99700714D02*
X100166666Y-99748333D01*
X100166666Y-99748333D02*
X100119047Y-99843571D01*
X100119047Y-99843571D02*
X100119047Y-100367380D01*
X100119047Y-99843571D02*
X100071428Y-99748333D01*
X100071428Y-99748333D02*
X99976190Y-99700714D01*
X99976190Y-99700714D02*
X99833333Y-99700714D01*
X99833333Y-99700714D02*
X99738094Y-99748333D01*
X99738094Y-99748333D02*
X99690475Y-99843571D01*
X99690475Y-99843571D02*
X99690475Y-100367380D01*
X98500000Y-99319761D02*
X99357142Y-100605476D01*
X98166666Y-100367380D02*
X98166666Y-99700714D01*
X98166666Y-99795952D02*
X98119047Y-99748333D01*
X98119047Y-99748333D02*
X98023809Y-99700714D01*
X98023809Y-99700714D02*
X97880952Y-99700714D01*
X97880952Y-99700714D02*
X97785714Y-99748333D01*
X97785714Y-99748333D02*
X97738095Y-99843571D01*
X97738095Y-99843571D02*
X97738095Y-100367380D01*
X97738095Y-99843571D02*
X97690476Y-99748333D01*
X97690476Y-99748333D02*
X97595238Y-99700714D01*
X97595238Y-99700714D02*
X97452381Y-99700714D01*
X97452381Y-99700714D02*
X97357142Y-99748333D01*
X97357142Y-99748333D02*
X97309523Y-99843571D01*
X97309523Y-99843571D02*
X97309523Y-100367380D01*
X96833333Y-100367380D02*
X96833333Y-99700714D01*
X96833333Y-99367380D02*
X96880952Y-99415000D01*
X96880952Y-99415000D02*
X96833333Y-99462619D01*
X96833333Y-99462619D02*
X96785714Y-99415000D01*
X96785714Y-99415000D02*
X96833333Y-99367380D01*
X96833333Y-99367380D02*
X96833333Y-99462619D01*
X95976191Y-100319761D02*
X96071429Y-100367380D01*
X96071429Y-100367380D02*
X96261905Y-100367380D01*
X96261905Y-100367380D02*
X96357143Y-100319761D01*
X96357143Y-100319761D02*
X96404762Y-100224523D01*
X96404762Y-100224523D02*
X96404762Y-99843571D01*
X96404762Y-99843571D02*
X96357143Y-99748333D01*
X96357143Y-99748333D02*
X96261905Y-99700714D01*
X96261905Y-99700714D02*
X96071429Y-99700714D01*
X96071429Y-99700714D02*
X95976191Y-99748333D01*
X95976191Y-99748333D02*
X95928572Y-99843571D01*
X95928572Y-99843571D02*
X95928572Y-99938809D01*
X95928572Y-99938809D02*
X96404762Y-100034047D01*
X95500000Y-100367380D02*
X95500000Y-99367380D01*
X95404762Y-99986428D02*
X95119048Y-100367380D01*
X95119048Y-99700714D02*
X95500000Y-100081666D01*
X94261905Y-99700714D02*
X94261905Y-100367380D01*
X94690476Y-99700714D02*
X94690476Y-100224523D01*
X94690476Y-100224523D02*
X94642857Y-100319761D01*
X94642857Y-100319761D02*
X94547619Y-100367380D01*
X94547619Y-100367380D02*
X94404762Y-100367380D01*
X94404762Y-100367380D02*
X94309524Y-100319761D01*
X94309524Y-100319761D02*
X94261905Y-100272142D01*
X93833333Y-100319761D02*
X93738095Y-100367380D01*
X93738095Y-100367380D02*
X93547619Y-100367380D01*
X93547619Y-100367380D02*
X93452381Y-100319761D01*
X93452381Y-100319761D02*
X93404762Y-100224523D01*
X93404762Y-100224523D02*
X93404762Y-100176904D01*
X93404762Y-100176904D02*
X93452381Y-100081666D01*
X93452381Y-100081666D02*
X93547619Y-100034047D01*
X93547619Y-100034047D02*
X93690476Y-100034047D01*
X93690476Y-100034047D02*
X93785714Y-99986428D01*
X93785714Y-99986428D02*
X93833333Y-99891190D01*
X93833333Y-99891190D02*
X93833333Y-99843571D01*
X93833333Y-99843571D02*
X93785714Y-99748333D01*
X93785714Y-99748333D02*
X93690476Y-99700714D01*
X93690476Y-99700714D02*
X93547619Y-99700714D01*
X93547619Y-99700714D02*
X93452381Y-99748333D01*
X92976190Y-100367380D02*
X92976190Y-99367380D01*
X92547619Y-100367380D02*
X92547619Y-99843571D01*
X92547619Y-99843571D02*
X92595238Y-99748333D01*
X92595238Y-99748333D02*
X92690476Y-99700714D01*
X92690476Y-99700714D02*
X92833333Y-99700714D01*
X92833333Y-99700714D02*
X92928571Y-99748333D01*
X92928571Y-99748333D02*
X92976190Y-99795952D01*
X87059419Y-108613676D02*
X87535609Y-108947009D01*
X87059419Y-109185104D02*
X88059419Y-109185104D01*
X88059419Y-109185104D02*
X88059419Y-108804152D01*
X88059419Y-108804152D02*
X88011800Y-108708914D01*
X88011800Y-108708914D02*
X87964180Y-108661295D01*
X87964180Y-108661295D02*
X87868942Y-108613676D01*
X87868942Y-108613676D02*
X87726085Y-108613676D01*
X87726085Y-108613676D02*
X87630847Y-108661295D01*
X87630847Y-108661295D02*
X87583228Y-108708914D01*
X87583228Y-108708914D02*
X87535609Y-108804152D01*
X87535609Y-108804152D02*
X87535609Y-109185104D01*
X87107038Y-108232723D02*
X87059419Y-108089866D01*
X87059419Y-108089866D02*
X87059419Y-107851771D01*
X87059419Y-107851771D02*
X87107038Y-107756533D01*
X87107038Y-107756533D02*
X87154657Y-107708914D01*
X87154657Y-107708914D02*
X87249895Y-107661295D01*
X87249895Y-107661295D02*
X87345133Y-107661295D01*
X87345133Y-107661295D02*
X87440371Y-107708914D01*
X87440371Y-107708914D02*
X87487990Y-107756533D01*
X87487990Y-107756533D02*
X87535609Y-107851771D01*
X87535609Y-107851771D02*
X87583228Y-108042247D01*
X87583228Y-108042247D02*
X87630847Y-108137485D01*
X87630847Y-108137485D02*
X87678466Y-108185104D01*
X87678466Y-108185104D02*
X87773704Y-108232723D01*
X87773704Y-108232723D02*
X87868942Y-108232723D01*
X87868942Y-108232723D02*
X87964180Y-108185104D01*
X87964180Y-108185104D02*
X88011800Y-108137485D01*
X88011800Y-108137485D02*
X88059419Y-108042247D01*
X88059419Y-108042247D02*
X88059419Y-107804152D01*
X88059419Y-107804152D02*
X88011800Y-107661295D01*
X88059419Y-107375580D02*
X88059419Y-106804152D01*
X87059419Y-107089866D02*
X88059419Y-107089866D01*
X98924951Y-90080180D02*
X98924951Y-89080180D01*
X98924951Y-89080180D02*
X98543999Y-89080180D01*
X98543999Y-89080180D02*
X98448761Y-89127800D01*
X98448761Y-89127800D02*
X98401142Y-89175419D01*
X98401142Y-89175419D02*
X98353523Y-89270657D01*
X98353523Y-89270657D02*
X98353523Y-89413514D01*
X98353523Y-89413514D02*
X98401142Y-89508752D01*
X98401142Y-89508752D02*
X98448761Y-89556371D01*
X98448761Y-89556371D02*
X98543999Y-89603990D01*
X98543999Y-89603990D02*
X98924951Y-89603990D01*
X97924951Y-89699228D02*
X97163047Y-89699228D01*
X97543999Y-90080180D02*
X97543999Y-89318276D01*
X93844951Y-90080180D02*
X93844951Y-89080180D01*
X93844951Y-89080180D02*
X93463999Y-89080180D01*
X93463999Y-89080180D02*
X93368761Y-89127800D01*
X93368761Y-89127800D02*
X93321142Y-89175419D01*
X93321142Y-89175419D02*
X93273523Y-89270657D01*
X93273523Y-89270657D02*
X93273523Y-89413514D01*
X93273523Y-89413514D02*
X93321142Y-89508752D01*
X93321142Y-89508752D02*
X93368761Y-89556371D01*
X93368761Y-89556371D02*
X93463999Y-89603990D01*
X93463999Y-89603990D02*
X93844951Y-89603990D01*
X92844951Y-89699228D02*
X92083047Y-89699228D01*
X79877533Y-105422723D02*
X79877533Y-104946533D01*
X79591819Y-105517961D02*
X80591819Y-105184628D01*
X80591819Y-105184628D02*
X79591819Y-104851295D01*
X79591819Y-104517961D02*
X80591819Y-104517961D01*
X79591819Y-104041771D02*
X80591819Y-104041771D01*
X80591819Y-104041771D02*
X79591819Y-103470343D01*
X79591819Y-103470343D02*
X80591819Y-103470343D01*
X85624200Y-105003695D02*
X85671819Y-105098933D01*
X85671819Y-105098933D02*
X85671819Y-105241790D01*
X85671819Y-105241790D02*
X85624200Y-105384647D01*
X85624200Y-105384647D02*
X85528961Y-105479885D01*
X85528961Y-105479885D02*
X85433723Y-105527504D01*
X85433723Y-105527504D02*
X85243247Y-105575123D01*
X85243247Y-105575123D02*
X85100390Y-105575123D01*
X85100390Y-105575123D02*
X84909914Y-105527504D01*
X84909914Y-105527504D02*
X84814676Y-105479885D01*
X84814676Y-105479885D02*
X84719438Y-105384647D01*
X84719438Y-105384647D02*
X84671819Y-105241790D01*
X84671819Y-105241790D02*
X84671819Y-105146552D01*
X84671819Y-105146552D02*
X84719438Y-105003695D01*
X84719438Y-105003695D02*
X84767057Y-104956076D01*
X84767057Y-104956076D02*
X85100390Y-104956076D01*
X85100390Y-104956076D02*
X85100390Y-105146552D01*
X84671819Y-104527504D02*
X85671819Y-104527504D01*
X85671819Y-104527504D02*
X84671819Y-103956076D01*
X84671819Y-103956076D02*
X85671819Y-103956076D01*
X84671819Y-103479885D02*
X85671819Y-103479885D01*
X85671819Y-103479885D02*
X85671819Y-103241790D01*
X85671819Y-103241790D02*
X85624200Y-103098933D01*
X85624200Y-103098933D02*
X85528961Y-103003695D01*
X85528961Y-103003695D02*
X85433723Y-102956076D01*
X85433723Y-102956076D02*
X85243247Y-102908457D01*
X85243247Y-102908457D02*
X85100390Y-102908457D01*
X85100390Y-102908457D02*
X84909914Y-102956076D01*
X84909914Y-102956076D02*
X84814676Y-103003695D01*
X84814676Y-103003695D02*
X84719438Y-103098933D01*
X84719438Y-103098933D02*
X84671819Y-103241790D01*
X84671819Y-103241790D02*
X84671819Y-103479885D01*
X82512771Y-105527504D02*
X82512771Y-104765600D01*
X82131819Y-105146552D02*
X82893723Y-105146552D01*
X83131819Y-103813219D02*
X83131819Y-104289409D01*
X83131819Y-104289409D02*
X82655628Y-104337028D01*
X82655628Y-104337028D02*
X82703247Y-104289409D01*
X82703247Y-104289409D02*
X82750866Y-104194171D01*
X82750866Y-104194171D02*
X82750866Y-103956076D01*
X82750866Y-103956076D02*
X82703247Y-103860838D01*
X82703247Y-103860838D02*
X82655628Y-103813219D01*
X82655628Y-103813219D02*
X82560390Y-103765600D01*
X82560390Y-103765600D02*
X82322295Y-103765600D01*
X82322295Y-103765600D02*
X82227057Y-103813219D01*
X82227057Y-103813219D02*
X82179438Y-103860838D01*
X82179438Y-103860838D02*
X82131819Y-103956076D01*
X82131819Y-103956076D02*
X82131819Y-104194171D01*
X82131819Y-104194171D02*
X82179438Y-104289409D01*
X82179438Y-104289409D02*
X82227057Y-104337028D01*
X83131819Y-103479885D02*
X82131819Y-103146552D01*
X82131819Y-103146552D02*
X83131819Y-102813219D01*
X114973571Y-105679904D02*
X114973571Y-104918000D01*
X114592619Y-105298952D02*
X115354523Y-105298952D01*
X115592619Y-103965619D02*
X115592619Y-104441809D01*
X115592619Y-104441809D02*
X115116428Y-104489428D01*
X115116428Y-104489428D02*
X115164047Y-104441809D01*
X115164047Y-104441809D02*
X115211666Y-104346571D01*
X115211666Y-104346571D02*
X115211666Y-104108476D01*
X115211666Y-104108476D02*
X115164047Y-104013238D01*
X115164047Y-104013238D02*
X115116428Y-103965619D01*
X115116428Y-103965619D02*
X115021190Y-103918000D01*
X115021190Y-103918000D02*
X114783095Y-103918000D01*
X114783095Y-103918000D02*
X114687857Y-103965619D01*
X114687857Y-103965619D02*
X114640238Y-104013238D01*
X114640238Y-104013238D02*
X114592619Y-104108476D01*
X114592619Y-104108476D02*
X114592619Y-104346571D01*
X114592619Y-104346571D02*
X114640238Y-104441809D01*
X114640238Y-104441809D02*
X114687857Y-104489428D01*
X115592619Y-103632285D02*
X114592619Y-103298952D01*
X114592619Y-103298952D02*
X115592619Y-102965619D01*
X118132619Y-105670361D02*
X117132619Y-105337028D01*
X117132619Y-105337028D02*
X118132619Y-105003695D01*
X117132619Y-104670361D02*
X118132619Y-104670361D01*
X117132619Y-104194171D02*
X118132619Y-104194171D01*
X118132619Y-104194171D02*
X117132619Y-103622743D01*
X117132619Y-103622743D02*
X118132619Y-103622743D01*
X91410238Y-113309523D02*
X91362619Y-113166666D01*
X91362619Y-113166666D02*
X91362619Y-112928571D01*
X91362619Y-112928571D02*
X91410238Y-112833333D01*
X91410238Y-112833333D02*
X91457857Y-112785714D01*
X91457857Y-112785714D02*
X91553095Y-112738095D01*
X91553095Y-112738095D02*
X91648333Y-112738095D01*
X91648333Y-112738095D02*
X91743571Y-112785714D01*
X91743571Y-112785714D02*
X91791190Y-112833333D01*
X91791190Y-112833333D02*
X91838809Y-112928571D01*
X91838809Y-112928571D02*
X91886428Y-113119047D01*
X91886428Y-113119047D02*
X91934047Y-113214285D01*
X91934047Y-113214285D02*
X91981666Y-113261904D01*
X91981666Y-113261904D02*
X92076904Y-113309523D01*
X92076904Y-113309523D02*
X92172142Y-113309523D01*
X92172142Y-113309523D02*
X92267380Y-113261904D01*
X92267380Y-113261904D02*
X92315000Y-113214285D01*
X92315000Y-113214285D02*
X92362619Y-113119047D01*
X92362619Y-113119047D02*
X92362619Y-112880952D01*
X92362619Y-112880952D02*
X92315000Y-112738095D01*
X92362619Y-112404761D02*
X91362619Y-112166666D01*
X91362619Y-112166666D02*
X92076904Y-111976190D01*
X92076904Y-111976190D02*
X91362619Y-111785714D01*
X91362619Y-111785714D02*
X92362619Y-111547619D01*
X91362619Y-110642857D02*
X91362619Y-111214285D01*
X91362619Y-110928571D02*
X92362619Y-110928571D01*
X92362619Y-110928571D02*
X92219761Y-111023809D01*
X92219761Y-111023809D02*
X92124523Y-111119047D01*
X92124523Y-111119047D02*
X92076904Y-111214285D01*
X97395000Y-112738095D02*
X97442619Y-112833333D01*
X97442619Y-112833333D02*
X97442619Y-112976190D01*
X97442619Y-112976190D02*
X97395000Y-113119047D01*
X97395000Y-113119047D02*
X97299761Y-113214285D01*
X97299761Y-113214285D02*
X97204523Y-113261904D01*
X97204523Y-113261904D02*
X97014047Y-113309523D01*
X97014047Y-113309523D02*
X96871190Y-113309523D01*
X96871190Y-113309523D02*
X96680714Y-113261904D01*
X96680714Y-113261904D02*
X96585476Y-113214285D01*
X96585476Y-113214285D02*
X96490238Y-113119047D01*
X96490238Y-113119047D02*
X96442619Y-112976190D01*
X96442619Y-112976190D02*
X96442619Y-112880952D01*
X96442619Y-112880952D02*
X96490238Y-112738095D01*
X96490238Y-112738095D02*
X96537857Y-112690476D01*
X96537857Y-112690476D02*
X96871190Y-112690476D01*
X96871190Y-112690476D02*
X96871190Y-112880952D01*
X96442619Y-112261904D02*
X97442619Y-112261904D01*
X97442619Y-112261904D02*
X96442619Y-111690476D01*
X96442619Y-111690476D02*
X97442619Y-111690476D01*
X96442619Y-111214285D02*
X97442619Y-111214285D01*
X97442619Y-111214285D02*
X97442619Y-110976190D01*
X97442619Y-110976190D02*
X97395000Y-110833333D01*
X97395000Y-110833333D02*
X97299761Y-110738095D01*
X97299761Y-110738095D02*
X97204523Y-110690476D01*
X97204523Y-110690476D02*
X97014047Y-110642857D01*
X97014047Y-110642857D02*
X96871190Y-110642857D01*
X96871190Y-110642857D02*
X96680714Y-110690476D01*
X96680714Y-110690476D02*
X96585476Y-110738095D01*
X96585476Y-110738095D02*
X96490238Y-110833333D01*
X96490238Y-110833333D02*
X96442619Y-110976190D01*
X96442619Y-110976190D02*
X96442619Y-111214285D01*
X93902619Y-113261904D02*
X94902619Y-113261904D01*
X94902619Y-112595238D02*
X94902619Y-112404762D01*
X94902619Y-112404762D02*
X94855000Y-112309524D01*
X94855000Y-112309524D02*
X94759761Y-112214286D01*
X94759761Y-112214286D02*
X94569285Y-112166667D01*
X94569285Y-112166667D02*
X94235952Y-112166667D01*
X94235952Y-112166667D02*
X94045476Y-112214286D01*
X94045476Y-112214286D02*
X93950238Y-112309524D01*
X93950238Y-112309524D02*
X93902619Y-112404762D01*
X93902619Y-112404762D02*
X93902619Y-112595238D01*
X93902619Y-112595238D02*
X93950238Y-112690476D01*
X93950238Y-112690476D02*
X94045476Y-112785714D01*
X94045476Y-112785714D02*
X94235952Y-112833333D01*
X94235952Y-112833333D02*
X94569285Y-112833333D01*
X94569285Y-112833333D02*
X94759761Y-112785714D01*
X94759761Y-112785714D02*
X94855000Y-112690476D01*
X94855000Y-112690476D02*
X94902619Y-112595238D01*
X93950238Y-111785714D02*
X93902619Y-111642857D01*
X93902619Y-111642857D02*
X93902619Y-111404762D01*
X93902619Y-111404762D02*
X93950238Y-111309524D01*
X93950238Y-111309524D02*
X93997857Y-111261905D01*
X93997857Y-111261905D02*
X94093095Y-111214286D01*
X94093095Y-111214286D02*
X94188333Y-111214286D01*
X94188333Y-111214286D02*
X94283571Y-111261905D01*
X94283571Y-111261905D02*
X94331190Y-111309524D01*
X94331190Y-111309524D02*
X94378809Y-111404762D01*
X94378809Y-111404762D02*
X94426428Y-111595238D01*
X94426428Y-111595238D02*
X94474047Y-111690476D01*
X94474047Y-111690476D02*
X94521666Y-111738095D01*
X94521666Y-111738095D02*
X94616904Y-111785714D01*
X94616904Y-111785714D02*
X94712142Y-111785714D01*
X94712142Y-111785714D02*
X94807380Y-111738095D01*
X94807380Y-111738095D02*
X94855000Y-111690476D01*
X94855000Y-111690476D02*
X94902619Y-111595238D01*
X94902619Y-111595238D02*
X94902619Y-111357143D01*
X94902619Y-111357143D02*
X94855000Y-111214286D01*
X94426428Y-110785714D02*
X94426428Y-110452381D01*
X93902619Y-110309524D02*
X93902619Y-110785714D01*
X93902619Y-110785714D02*
X94902619Y-110785714D01*
X94902619Y-110785714D02*
X94902619Y-110309524D01*
X93902619Y-109404762D02*
X93902619Y-109880952D01*
X93902619Y-109880952D02*
X94902619Y-109880952D01*
X89203571Y-113261904D02*
X89203571Y-112500000D01*
X88822619Y-112880952D02*
X89584523Y-112880952D01*
X89822619Y-111547619D02*
X89822619Y-112023809D01*
X89822619Y-112023809D02*
X89346428Y-112071428D01*
X89346428Y-112071428D02*
X89394047Y-112023809D01*
X89394047Y-112023809D02*
X89441666Y-111928571D01*
X89441666Y-111928571D02*
X89441666Y-111690476D01*
X89441666Y-111690476D02*
X89394047Y-111595238D01*
X89394047Y-111595238D02*
X89346428Y-111547619D01*
X89346428Y-111547619D02*
X89251190Y-111500000D01*
X89251190Y-111500000D02*
X89013095Y-111500000D01*
X89013095Y-111500000D02*
X88917857Y-111547619D01*
X88917857Y-111547619D02*
X88870238Y-111595238D01*
X88870238Y-111595238D02*
X88822619Y-111690476D01*
X88822619Y-111690476D02*
X88822619Y-111928571D01*
X88822619Y-111928571D02*
X88870238Y-112023809D01*
X88870238Y-112023809D02*
X88917857Y-112071428D01*
X89822619Y-111214285D02*
X88822619Y-110880952D01*
X88822619Y-110880952D02*
X89822619Y-110547619D01*
X111395000Y-112738095D02*
X111442619Y-112833333D01*
X111442619Y-112833333D02*
X111442619Y-112976190D01*
X111442619Y-112976190D02*
X111395000Y-113119047D01*
X111395000Y-113119047D02*
X111299761Y-113214285D01*
X111299761Y-113214285D02*
X111204523Y-113261904D01*
X111204523Y-113261904D02*
X111014047Y-113309523D01*
X111014047Y-113309523D02*
X110871190Y-113309523D01*
X110871190Y-113309523D02*
X110680714Y-113261904D01*
X110680714Y-113261904D02*
X110585476Y-113214285D01*
X110585476Y-113214285D02*
X110490238Y-113119047D01*
X110490238Y-113119047D02*
X110442619Y-112976190D01*
X110442619Y-112976190D02*
X110442619Y-112880952D01*
X110442619Y-112880952D02*
X110490238Y-112738095D01*
X110490238Y-112738095D02*
X110537857Y-112690476D01*
X110537857Y-112690476D02*
X110871190Y-112690476D01*
X110871190Y-112690476D02*
X110871190Y-112880952D01*
X110442619Y-112261904D02*
X111442619Y-112261904D01*
X111442619Y-112261904D02*
X110442619Y-111690476D01*
X110442619Y-111690476D02*
X111442619Y-111690476D01*
X110442619Y-111214285D02*
X111442619Y-111214285D01*
X111442619Y-111214285D02*
X111442619Y-110976190D01*
X111442619Y-110976190D02*
X111395000Y-110833333D01*
X111395000Y-110833333D02*
X111299761Y-110738095D01*
X111299761Y-110738095D02*
X111204523Y-110690476D01*
X111204523Y-110690476D02*
X111014047Y-110642857D01*
X111014047Y-110642857D02*
X110871190Y-110642857D01*
X110871190Y-110642857D02*
X110680714Y-110690476D01*
X110680714Y-110690476D02*
X110585476Y-110738095D01*
X110585476Y-110738095D02*
X110490238Y-110833333D01*
X110490238Y-110833333D02*
X110442619Y-110976190D01*
X110442619Y-110976190D02*
X110442619Y-111214285D01*
X107902619Y-113261904D02*
X108902619Y-113261904D01*
X108902619Y-112595238D02*
X108902619Y-112404762D01*
X108902619Y-112404762D02*
X108855000Y-112309524D01*
X108855000Y-112309524D02*
X108759761Y-112214286D01*
X108759761Y-112214286D02*
X108569285Y-112166667D01*
X108569285Y-112166667D02*
X108235952Y-112166667D01*
X108235952Y-112166667D02*
X108045476Y-112214286D01*
X108045476Y-112214286D02*
X107950238Y-112309524D01*
X107950238Y-112309524D02*
X107902619Y-112404762D01*
X107902619Y-112404762D02*
X107902619Y-112595238D01*
X107902619Y-112595238D02*
X107950238Y-112690476D01*
X107950238Y-112690476D02*
X108045476Y-112785714D01*
X108045476Y-112785714D02*
X108235952Y-112833333D01*
X108235952Y-112833333D02*
X108569285Y-112833333D01*
X108569285Y-112833333D02*
X108759761Y-112785714D01*
X108759761Y-112785714D02*
X108855000Y-112690476D01*
X108855000Y-112690476D02*
X108902619Y-112595238D01*
X107950238Y-111785714D02*
X107902619Y-111642857D01*
X107902619Y-111642857D02*
X107902619Y-111404762D01*
X107902619Y-111404762D02*
X107950238Y-111309524D01*
X107950238Y-111309524D02*
X107997857Y-111261905D01*
X107997857Y-111261905D02*
X108093095Y-111214286D01*
X108093095Y-111214286D02*
X108188333Y-111214286D01*
X108188333Y-111214286D02*
X108283571Y-111261905D01*
X108283571Y-111261905D02*
X108331190Y-111309524D01*
X108331190Y-111309524D02*
X108378809Y-111404762D01*
X108378809Y-111404762D02*
X108426428Y-111595238D01*
X108426428Y-111595238D02*
X108474047Y-111690476D01*
X108474047Y-111690476D02*
X108521666Y-111738095D01*
X108521666Y-111738095D02*
X108616904Y-111785714D01*
X108616904Y-111785714D02*
X108712142Y-111785714D01*
X108712142Y-111785714D02*
X108807380Y-111738095D01*
X108807380Y-111738095D02*
X108855000Y-111690476D01*
X108855000Y-111690476D02*
X108902619Y-111595238D01*
X108902619Y-111595238D02*
X108902619Y-111357143D01*
X108902619Y-111357143D02*
X108855000Y-111214286D01*
X108426428Y-110785714D02*
X108426428Y-110452381D01*
X107902619Y-110309524D02*
X107902619Y-110785714D01*
X107902619Y-110785714D02*
X108902619Y-110785714D01*
X108902619Y-110785714D02*
X108902619Y-110309524D01*
X107902619Y-109404762D02*
X107902619Y-109880952D01*
X107902619Y-109880952D02*
X108902619Y-109880952D01*
X105410238Y-113309523D02*
X105362619Y-113166666D01*
X105362619Y-113166666D02*
X105362619Y-112928571D01*
X105362619Y-112928571D02*
X105410238Y-112833333D01*
X105410238Y-112833333D02*
X105457857Y-112785714D01*
X105457857Y-112785714D02*
X105553095Y-112738095D01*
X105553095Y-112738095D02*
X105648333Y-112738095D01*
X105648333Y-112738095D02*
X105743571Y-112785714D01*
X105743571Y-112785714D02*
X105791190Y-112833333D01*
X105791190Y-112833333D02*
X105838809Y-112928571D01*
X105838809Y-112928571D02*
X105886428Y-113119047D01*
X105886428Y-113119047D02*
X105934047Y-113214285D01*
X105934047Y-113214285D02*
X105981666Y-113261904D01*
X105981666Y-113261904D02*
X106076904Y-113309523D01*
X106076904Y-113309523D02*
X106172142Y-113309523D01*
X106172142Y-113309523D02*
X106267380Y-113261904D01*
X106267380Y-113261904D02*
X106315000Y-113214285D01*
X106315000Y-113214285D02*
X106362619Y-113119047D01*
X106362619Y-113119047D02*
X106362619Y-112880952D01*
X106362619Y-112880952D02*
X106315000Y-112738095D01*
X106362619Y-112404761D02*
X105362619Y-112166666D01*
X105362619Y-112166666D02*
X106076904Y-111976190D01*
X106076904Y-111976190D02*
X105362619Y-111785714D01*
X105362619Y-111785714D02*
X106362619Y-111547619D01*
X106267380Y-111214285D02*
X106315000Y-111166666D01*
X106315000Y-111166666D02*
X106362619Y-111071428D01*
X106362619Y-111071428D02*
X106362619Y-110833333D01*
X106362619Y-110833333D02*
X106315000Y-110738095D01*
X106315000Y-110738095D02*
X106267380Y-110690476D01*
X106267380Y-110690476D02*
X106172142Y-110642857D01*
X106172142Y-110642857D02*
X106076904Y-110642857D01*
X106076904Y-110642857D02*
X105934047Y-110690476D01*
X105934047Y-110690476D02*
X105362619Y-111261904D01*
X105362619Y-111261904D02*
X105362619Y-110642857D01*
X103203571Y-113261904D02*
X103203571Y-112500000D01*
X102822619Y-112880952D02*
X103584523Y-112880952D01*
X103822619Y-111547619D02*
X103822619Y-112023809D01*
X103822619Y-112023809D02*
X103346428Y-112071428D01*
X103346428Y-112071428D02*
X103394047Y-112023809D01*
X103394047Y-112023809D02*
X103441666Y-111928571D01*
X103441666Y-111928571D02*
X103441666Y-111690476D01*
X103441666Y-111690476D02*
X103394047Y-111595238D01*
X103394047Y-111595238D02*
X103346428Y-111547619D01*
X103346428Y-111547619D02*
X103251190Y-111500000D01*
X103251190Y-111500000D02*
X103013095Y-111500000D01*
X103013095Y-111500000D02*
X102917857Y-111547619D01*
X102917857Y-111547619D02*
X102870238Y-111595238D01*
X102870238Y-111595238D02*
X102822619Y-111690476D01*
X102822619Y-111690476D02*
X102822619Y-111928571D01*
X102822619Y-111928571D02*
X102870238Y-112023809D01*
X102870238Y-112023809D02*
X102917857Y-112071428D01*
X103822619Y-111214285D02*
X102822619Y-110880952D01*
X102822619Y-110880952D02*
X103822619Y-110547619D01*
M02*
