%TF.GenerationSoftware,KiCad,Pcbnew,(7.0.0)*%
%TF.CreationDate,2023-03-04T14:16:48-06:00*%
%TF.ProjectId,pic16-pump-controller,70696331-362d-4707-956d-702d636f6e74,rev?*%
%TF.SameCoordinates,Original*%
%TF.FileFunction,Paste,Top*%
%TF.FilePolarity,Positive*%
%FSLAX46Y46*%
G04 Gerber Fmt 4.6, Leading zero omitted, Abs format (unit mm)*
G04 Created by KiCad (PCBNEW (7.0.0)) date 2023-03-04 14:16:48*
%MOMM*%
%LPD*%
G01*
G04 APERTURE LIST*
G04 Aperture macros list*
%AMRoundRect*
0 Rectangle with rounded corners*
0 $1 Rounding radius*
0 $2 $3 $4 $5 $6 $7 $8 $9 X,Y pos of 4 corners*
0 Add a 4 corners polygon primitive as box body*
4,1,4,$2,$3,$4,$5,$6,$7,$8,$9,$2,$3,0*
0 Add four circle primitives for the rounded corners*
1,1,$1+$1,$2,$3*
1,1,$1+$1,$4,$5*
1,1,$1+$1,$6,$7*
1,1,$1+$1,$8,$9*
0 Add four rect primitives between the rounded corners*
20,1,$1+$1,$2,$3,$4,$5,0*
20,1,$1+$1,$4,$5,$6,$7,0*
20,1,$1+$1,$6,$7,$8,$9,0*
20,1,$1+$1,$8,$9,$2,$3,0*%
G04 Aperture macros list end*
%ADD10RoundRect,0.250000X-0.550000X1.500000X-0.550000X-1.500000X0.550000X-1.500000X0.550000X1.500000X0*%
%ADD11RoundRect,0.250000X1.000000X0.650000X-1.000000X0.650000X-1.000000X-0.650000X1.000000X-0.650000X0*%
%ADD12RoundRect,0.225000X0.225000X0.250000X-0.225000X0.250000X-0.225000X-0.250000X0.225000X-0.250000X0*%
%ADD13RoundRect,0.200000X0.275000X-0.200000X0.275000X0.200000X-0.275000X0.200000X-0.275000X-0.200000X0*%
%ADD14RoundRect,0.200000X-0.200000X-0.275000X0.200000X-0.275000X0.200000X0.275000X-0.200000X0.275000X0*%
%ADD15RoundRect,0.250000X-0.475000X0.250000X-0.475000X-0.250000X0.475000X-0.250000X0.475000X0.250000X0*%
%ADD16RoundRect,0.200000X-0.275000X0.200000X-0.275000X-0.200000X0.275000X-0.200000X0.275000X0.200000X0*%
%ADD17RoundRect,0.150000X-0.825000X-0.150000X0.825000X-0.150000X0.825000X0.150000X-0.825000X0.150000X0*%
%ADD18RoundRect,0.150000X-0.587500X-0.150000X0.587500X-0.150000X0.587500X0.150000X-0.587500X0.150000X0*%
%ADD19RoundRect,0.218750X-0.256250X0.218750X-0.256250X-0.218750X0.256250X-0.218750X0.256250X0.218750X0*%
%ADD20R,1.500000X2.000000*%
%ADD21R,3.800000X2.000000*%
%ADD22RoundRect,0.250000X-0.650000X1.000000X-0.650000X-1.000000X0.650000X-1.000000X0.650000X1.000000X0*%
%ADD23R,1.300000X1.550000*%
G04 APERTURE END LIST*
D10*
%TO.C,C1*%
X103733600Y-103284000D03*
X103733600Y-97884000D03*
%TD*%
D11*
%TO.C,D1*%
X97500000Y-94411800D03*
X93500000Y-94411800D03*
%TD*%
D12*
%TO.C,C4*%
X89852800Y-98958400D03*
X88302800Y-98958400D03*
%TD*%
D13*
%TO.C,R5*%
X90017600Y-110857800D03*
X90017600Y-109207800D03*
%TD*%
D14*
%TO.C,R2*%
X88252800Y-104267000D03*
X89902800Y-104267000D03*
%TD*%
D15*
%TO.C,C3*%
X108294200Y-95438000D03*
X108294200Y-93538000D03*
%TD*%
D16*
%TO.C,R4*%
X109220000Y-108877600D03*
X109220000Y-110527600D03*
%TD*%
D17*
%TO.C,U2*%
X92444800Y-98958400D03*
X92444800Y-100228400D03*
X92444800Y-101498400D03*
X92444800Y-102768400D03*
X92444800Y-104038400D03*
X92444800Y-105308400D03*
X92444800Y-106578400D03*
X97394800Y-106578400D03*
X97394800Y-105308400D03*
X97394800Y-104038400D03*
X97394800Y-102768400D03*
X97394800Y-101498400D03*
X97394800Y-100228400D03*
X97394800Y-98958400D03*
%TD*%
D18*
%TO.C,Q1*%
X87706200Y-93985000D03*
X87706200Y-95885000D03*
X89581200Y-94935000D03*
%TD*%
D14*
%TO.C,R1*%
X87694000Y-91998800D03*
X89344000Y-91998800D03*
%TD*%
D19*
%TO.C,D3*%
X102539800Y-108838900D03*
X102539800Y-110413900D03*
%TD*%
D12*
%TO.C,C5*%
X89852800Y-102565200D03*
X88302800Y-102565200D03*
%TD*%
D20*
%TO.C,U1*%
X103694199Y-90804999D03*
X105994199Y-90804999D03*
D21*
X105994199Y-84504999D03*
D20*
X108294199Y-90804999D03*
%TD*%
D12*
%TO.C,C2*%
X102171200Y-93827600D03*
X103721200Y-93827600D03*
%TD*%
D19*
%TO.C,D4*%
X106934000Y-108864300D03*
X106934000Y-110439300D03*
%TD*%
D16*
%TO.C,R3*%
X104749600Y-108801400D03*
X104749600Y-110451400D03*
%TD*%
D22*
%TO.C,D2*%
X109931200Y-102914200D03*
X109931200Y-98914200D03*
%TD*%
D23*
%TO.C,SW1*%
X84249999Y-96024999D03*
X84249999Y-103974999D03*
X79749999Y-96024999D03*
X79749999Y-103974999D03*
%TD*%
M02*
